<svg xmlns="http://www.w3.org/2000/svg" width="1800" height="560"><path d="M380 46c-1.49 3.126-3.031 5.302-5.5 7.75l-1.844 1.86C371 57 371 57 369 57l-1 3c-1.496 1.473-1.496 1.473-3.437 3.063-3.355 2.838-6.48 5.806-9.563 8.937a176 176 0 0 1-10.937 10.156C341.61 84.348 339.31 86.661 337 89c-2.876 2.91-5.759 5.724-8.875 8.375-3.558 3.04-6.84 6.299-10.125 9.625-3.873 3.92-7.808 7.654-12.008 11.227-2.431 2.164-4.704 4.457-6.992 6.773-2.876 2.91-5.759 5.724-8.875 8.375-3.558 3.04-6.84 6.299-10.125 9.625-3.851 3.899-7.764 7.608-11.941 11.16-3.13 2.797-6.044 5.805-8.99 8.791-3.223 3.25-6.562 6.274-10.042 9.24-2.441 2.179-4.727 4.481-7.027 6.809-2.855 2.89-5.715 5.685-8.812 8.313-3.76 3.21-7.215 6.675-10.688 10.187-4.052 4.098-8.146 8.031-12.543 11.762-3.326 2.954-6.394 6.168-9.52 9.332-2.682 2.647-5.483 5.094-8.351 7.535-3.498 3.138-6.726 6.545-9.984 9.93C180 238 180 238 178 238l-1 3c-1.496 1.473-1.496 1.473-3.437 3.063-4.377 3.696-8.365 7.701-12.364 11.8C159 258 159 258 156 260c-.445 1.915-.445 1.915-.36 4.15l-.013 2.635.032 2.897v3.045c.001 3.334.025 6.666.048 10q.009 3.459.013 6.919c.011 6.08.04 12.159.074 18.238.03 6.2.044 12.4.06 18.6q.05 18.258.146 36.516l1.65.525a45330 45330 0 0 1 23.77 7.571c13.846 4.407 27.67 8.872 41.455 13.466l2.107.702a1316 1316 0 0 1 23.01 7.904l2.35.83L256 396l-.067-3.805a4016 4016 0 0 1-.451-35.574c-.052-6.097-.123-12.192-.236-18.288-.11-5.887-.169-11.773-.195-17.662a422 422 0 0 0-.108-6.724c-.429-18.475-.429-18.475 3.21-23.486 2.487-2.525 4.913-4.488 7.847-6.461a202 202 0 0 0 4-3.5l1.938-1.656c2.451-2.192 4.75-4.505 7.062-6.844 2.855-2.89 5.715-5.685 8.813-8.312 3.758-3.21 7.214-6.676 10.687-10.188 4.052-4.098 8.146-8.031 12.543-11.762 3.326-2.954 6.394-6.168 9.52-9.332 2.682-2.647 5.483-5.094 8.351-7.535 3.498-3.138 6.726-6.545 9.984-9.93C341 213 341 213 343 213l1-3c1.496-1.473 1.496-1.473 3.438-3.062 3.354-2.839 6.479-5.807 9.562-8.938a178 178 0 0 1 11.004-10.223c2.257-2.01 4.373-4.125 6.496-6.277 2.688-2.724 5.398-5.333 8.313-7.812 3.576-3.063 6.88-6.34 10.187-9.688 3.851-3.899 7.764-7.608 11.941-11.16 3.13-2.797 6.044-5.805 8.99-8.791 3.215-3.24 6.541-6.261 10.018-9.213 3.489-3.123 6.703-6.523 9.95-9.895C436 123 436 123 438 123v-2c1.434-1.41 1.434-1.41 3.438-3.062 4.785-4.059 9.173-8.458 13.562-12.938 5.935 2.403 9.212 8.077 13 13l1.311 1.694C476.976 129.67 483.716 140.106 490 151l1.277 2.2c21.68 37.842 32.202 81.593 32.098 125.05l-.002 2.625c-.18 62.95-23.754 124.216-66.217 170.75a317 317 0 0 0-5.719 6.5c-6.02 6.874-12.475 12.89-19.609 18.602a233 233 0 0 0-5.344 4.421c-15.392 13.08-32.985 23.091-50.921 32.227l-1.897.976c-4.86 2.425-9.385 3.889-14.666 5.649l-1-217c-11.326 10.542-11.326 10.542-22.305 21.336-1.713 1.682-3.49 3.235-5.32 4.789-3.996 3.428-7.674 7.135-11.375 10.875-4.21 4.253-8.44 8.364-13.012 12.23-3.112 2.77-6 5.762-8.925 8.726-3.169 3.196-6.45 6.166-9.88 9.075-3.54 3.192-6.844 6.625-10.148 10.059-1.309 1.34-2.668 2.63-4.035 3.91h-2v2c-1.61 1.586-1.61 1.586-3.75 3.375A398 398 0 0 0 263 393l-2.101 1.751c-2.422 2.869-2.405 4.363-2.418 8.083l-.042 3.612.015 3.951q-.014 2.085-.031 4.17c-.028 3.77-.031 7.54-.03 11.31-.004 3.942-.03 7.883-.052 11.824-.041 7.462-.061 14.924-.074 22.386-.016 8.496-.055 16.991-.095 25.487Q258.05 511.786 258 538q-3.816.017-7.631.028l-2.163.011c-5.921.012-11.708-.388-17.581-1.164l-3.034-.393c-50.952-7.088-99.228-29.667-137.212-64.322a333 333 0 0 0-6.567-5.785C77.343 460.724 71.516 454.58 66 448l-1.285-1.53C36.088 412.16 16.992 371.73 8 328l-.637-2.885C.37 292.805 1.808 257.132 9 225c.225-1.035.45-2.07.68-3.137 9.814-44.168 31.864-84.481 62.375-117.672 1.972-2.144 1.972-2.144 3.578-4.476L77 98h2l1-3h2v-2c1.398-1.41 1.398-1.41 3.375-3.062a255 255 0 0 0 9.125-8.126C118.993 59.819 148.248 44.227 179 33q1.918-.727 3.836-1.457C199.716 25.459 218.147 21.67 236 20l3.059-.332C287.758 15.198 336.055 25 380 46" fill="#EF3B2B"/><path d="M1478 210c17.439-.068 34.877-.123 52.316-.155q12.148-.022 24.296-.071 10.6-.046 21.2-.056 5.603-.004 11.204-.035c39.52-.224 39.52-.224 52.421 7.005l1.987 1.061c14.407 7.928 24.536 19.914 30.576 35.251 2.82 10.38 3.424 20.494 3.34 31.207l.002 4.676c0 4.181-.017 8.362-.038 12.543-.019 4.388-.02 8.776-.024 13.164-.01 8.287-.034 16.574-.064 24.86-.034 9.445-.05 18.889-.065 28.333-.031 19.405-.084 38.811-.151 58.217q-27.944.177-55.888.26c-8.652.025-17.303.06-25.954.117q-11.322.076-22.643.093c-3.99.007-7.98.022-11.97.059-24.104.213-43.66-.774-62.158-18.111-6.545-6.63-11.96-13.7-15.387-22.418l-.754-1.805c-3.171-8.764-2.624-17.708-2.539-26.89l.01-4.795c.015-5.878.057-11.757.095-17.635L1478 295h146c.067-17.33.067-17.33-7.723-30.82-8.348-7.097-19.148-7.626-29.633-7.612l-3.581-.031c-3.869-.03-7.737-.04-11.606-.049q-4.045-.024-8.091-.054c-6.35-.044-12.7-.072-19.05-.095a8729 8729 0 0 1-21.707-.117c-14.87-.092-29.74-.162-44.609-.222zm50 131c-1.255 16.432-1.255 16.432 5 30 7.024 6.972 13.767 9.26 23.68 9.227h2.22c2.396 0 4.793-.016 7.19-.032l5.014-.008q6.573-.014 13.144-.05c5.266-.024 10.533-.033 15.8-.045 7.984-.019 15.968-.057 23.952-.092v-39zm-161.642-131.197c2.81.013 5.619.018 8.428.024 31.741.071 63.478.602 95.214 1.173v45l-11.025.044c-12.042.05-24.084.117-36.126.192q-10.947.07-21.895.11-9.549.034-19.097.103-5.05.037-10.1.049c-3.77.01-7.54.037-11.309.07l-3.337-.005c-10.506.127-20.46 1.695-28.111 9.437-4.853 6.391-5.169 13.11-5.562 20.813l-.131 2.388A2136 2136 0 0 0 1323 295l2.277-.003q27.39-.033 54.78-.049 13.245-.007 26.49-.023 11.54-.015 23.08-.02 6.114 0 12.229-.01 5.748-.01 11.496-.008 2.115 0 4.232-.006 2.876-.006 5.753-.001l3.26-.003C1469 295 1469 295 1470 296c.11 2.293.15 4.589.161 6.884l.015 2.183q.021 3.6.027 7.199l.017 5.014q.015 5.276.02 10.552c.006 4.475.03 8.95.058 13.425.019 3.46.024 6.922.026 10.383q.004 2.47.024 4.941c.143 19.14-3.288 34.878-16.973 49.142-15.389 14.756-32.914 20.971-54.021 20.731q-2.088-.001-4.174.002c-3.725.001-7.449-.022-11.173-.05-3.912-.026-7.823-.028-11.735-.033-7.384-.012-14.767-.045-22.151-.085-8.416-.045-16.832-.067-25.249-.087-17.29-.041-34.581-.115-51.872-.201v-46l11.348-.044c12.377-.05 24.754-.117 37.131-.192q11.256-.07 22.512-.11 9.813-.034 19.627-.103 5.193-.037 10.387-.049a1729 1729 0 0 0 11.612-.07l3.455.005c8.828-.104 15.918-1.674 22.928-7.437 7.682-10.256 6-15.032 6-30h-145l-.25-39.687-.11-12.456c-.018-5.083-.018-5.083-.022-7.475q-.01-2.466-.04-4.93c-.223-18.835 4.022-33.58 17.11-47.764 21.886-20.197 48.564-20.032 76.67-19.885m-205 0c2.81.013 5.619.018 8.428.024 31.741.071 63.478.602 95.214 1.173v45l-10.98.06q-17.968.102-35.935.228-10.892.076-21.785.134a8011 8011 0 0 0-18.994.12q-5.025.04-10.051.061c-3.747.017-7.493.046-11.24.078l-3.34.007c-9.53.103-18.889 1.414-26.405 7.777-6.338 6.65-7.344 14.503-7.844 23.379l-.129 2.093q-.152 2.53-.297 5.063l2.277-.003q27.39-.033 54.78-.049 13.245-.007 26.49-.023 11.54-.015 23.08-.02 6.114 0 12.229-.01 5.748-.01 11.496-.008 2.115 0 4.232-.006 2.876-.006 5.753-.001l3.26-.003C1264 295 1264 295 1265 296c.11 2.34.157 4.65.161 6.991l.015 2.218q.021 3.656.027 7.31l.017 5.09q.015 5.352.02 10.705c.006 4.545.03 9.09.058 13.634.019 3.511.024 7.023.026 10.534q.004 2.51.024 5.02c.134 18.259-3.156 33.719-16.114 47.339-12.91 13.083-28.557 21.038-47.15 21.52q-3.752.011-7.503-.02h-4.173c-3.733.002-7.465-.016-11.198-.037-3.917-.019-7.834-.02-11.751-.024-7.398-.01-14.796-.034-22.194-.064-8.43-.034-16.861-.05-25.292-.065A26881 26881 0 0 1 1068 426v-46l11.408-.028c12.453-.034 24.906-.09 37.359-.156 7.549-.04 15.097-.072 22.646-.087q9.874-.019 19.748-.084c3.482-.022 6.965-.038 10.447-.037 3.897.001 7.793-.03 11.69-.062l3.462.015c8.04-.104 15.312-1.338 21.678-6.561l1.562-2 1.625-2c2.584-3.758 3.626-6.38 3.57-10.984l-.02-2.832-.05-2.934-.027-2.98A994 994 0 0 0 1213 342l-2.246.003q-27.015.033-54.028.049-13.063.007-26.127.023-11.382.015-22.764.02-6.03 0-12.061.01-5.67.01-11.34.008-2.086 0-4.173.006-2.837.006-5.674.001l-3.215.003C1069 342 1069 342 1068 341a156 156 0 0 1-.161-7.083l-.015-2.248q-.021-3.704-.027-7.407l-.017-5.156q-.015-5.424-.02-10.847c-.006-4.606-.03-9.21-.058-13.815-.019-3.558-.024-7.116-.026-10.674q-.004-2.544-.024-5.087c-.137-18.941 3.7-34.54 17.168-48.663 22.104-20.48 48.207-20.366 76.538-20.217m-132.535 32.632c14.574 14.138 23.532 31.225 28.688 50.743a125 125 0 0 0 1.243 4.275C1061.04 305.58 1060 313.35 1060 322H904c4.585 16.812 11.066 27 26.184 35.96 25.94 14.415 59.133 15.743 87.316 7.915 14.31-4.309 25.033-11.297 35.5-21.875q1.417-1.418 2.836-2.832L1058 339c-.691 19.01-11.583 35.561-23 50l-1.625 2.063c-16.175 19.69-43.069 33.072-68.25 35.812q-2.561.108-5.125.125l-3.46.113c-29.951.587-57.295-9.512-79.041-30.145-21.335-20.967-32.535-48.006-32.812-77.78.095-30.519 11.59-56.514 32.813-78.063 5.107-5.037 10.36-9.379 16.5-13.125l3.238-2.02c42.84-26.024 95.998-17.11 131.585 16.455M916 270c-8 9.68-10.872 19.591-12 32h99c-1.26-16.383-4.963-27.296-17.383-38.066C963.342 247.353 935 249.947 916 270M634.542 127.866l2.43.007 2.562-.005c2.855-.004 5.71 0 8.566.003l6.113-.006q8.327-.005 16.655 0c5.796.003 11.591 0 17.387 0q14.602-.003 29.205.005 16.91.006 33.819-.002 14.488-.007 28.978-.003 8.666.003 17.332-.001 8.145-.004 16.291.005l5.998-.002q4.074-.002 8.15.006l2.43-.007c5.428.02 5.428.02 6.542 1.134.094 1.841.117 3.686.114 5.53v3.63l-.016 3.844-.003 3.512c-.006 4.349-.02 8.698-.032 13.047L837 188h-75v238h-59V188h-75l-.062-29.437-.028-9.307-.008-7.252-.015-3.845v-3.63l-.007-3.169c.23-4.516 2.743-3.48 6.662-3.494M1682 129h50v82h68v45h-68c.091 17.156.091 17.156.209 34.313.054 7.01.105 14.02.137 21.032q.041 8.49.117 16.981.025 3.219.035 6.436c.086 26.787 3.655 50.958 22.752 71.113 9.616 9.095 20.288 14.239 32.75 18.125v2c-7.292.102-14.583.172-21.875.22q-3.712.03-7.425.082c-23.58.323-41.995-2.225-59.7-19.302-15.672-17.813-17.453-35.93-17.34-58.669q0-3.594-.002-7.187.001-8.71.031-17.417c.022-6.762.026-13.524.03-20.285q.01-18.084.055-36.168a27671 27671 0 0 0 .075-48.18c.031-30.031.086-60.063.151-90.094"/><path d="m1298 223 2 1-16 16c0-4.919 3.688-7.605 7-11 2.277-2.088 4.605-4.045 7-6m-206 1 2 1-12 12-2-1c3.723-4.42 7.295-8.578 12-12" fill="#0000"/></svg>