<?xml version="1.0" encoding="UTF-8"?>
<svg version="1.1" xmlns="http://www.w3.org/2000/svg" width="1800" height="2230">
<path d="M0 0 C2.88752896 0.00461525 5.77463498 -0.00225131 8.66210938 -0.02050781 C34.73393749 -0.1834759 60.36410755 1.54500708 86.09985352 6.00317383 C86.83274597 6.12750793 87.56563843 6.25184204 88.32073975 6.37994385 C135.74411996 14.47514023 181.33106553 29.68533474 224.28735352 51.31567383 C224.28735352 51.97567383 224.28735352 52.63567383 224.28735352 53.31567383 C222.78344727 54.79614258 222.78344727 54.79614258 220.72485352 56.50317383 C217.96196671 58.84847141 215.32055595 61.22396788 212.78735352 63.81567383 C210.4771591 66.16739982 208.10953164 68.36606648 205.59985352 70.50317383 C201.98595664 73.61182687 198.63448213 76.92681694 195.28735352 80.31567383 C191.41479167 84.23633456 187.47943089 87.96971589 183.27954102 91.54223633 C179.94414554 94.5113923 176.86216025 97.73385726 173.72485352 100.90942383 C171.04272251 103.55716854 168.24174957 106.00346331 165.37329102 108.44458008 C161.87507644 111.58249165 158.64701923 114.99007678 155.38891602 118.37426758 C153.28735352 120.31567383 153.28735352 120.31567383 151.28735352 120.31567383 C150.95735352 121.30567383 150.62735352 122.29567383 150.28735352 123.31567383 C148.79125977 124.78833008 148.79125977 124.78833008 146.84985352 126.37817383 C143.49577336 129.21624165 140.37045777 132.18491727 137.28735352 135.31567383 C133.76629029 138.87967685 130.15549344 142.21871551 126.34985352 145.47192383 C123.89810663 147.66363695 121.59849779 149.97634487 119.28735352 152.31567383 C115.77456619 155.87130003 112.17738333 159.20721989 108.37329102 162.44458008 C104.87507644 165.58249165 101.64701923 168.99007678 98.38891602 172.37426758 C96.28735352 174.31567383 96.28735352 174.31567383 94.28735352 174.31567383 C93.95735352 175.30567383 93.62735352 176.29567383 93.28735352 177.31567383 C91.79125977 178.78833008 91.79125977 178.78833008 89.84985352 180.37817383 C86.49577336 183.21624165 83.37045777 186.18491727 80.28735352 189.31567383 C76.76629029 192.87967685 73.15549344 196.21871551 69.34985352 199.47192383 C66.89810663 201.66363695 64.59849779 203.97634487 62.28735352 206.31567383 C59.39143394 209.24685574 56.4849278 212.07970557 53.34985352 214.75317383 C49.99810256 217.61739738 46.88178935 220.67901476 43.78735352 223.81567383 C40.11888131 227.53413373 36.35586126 231.05235575 32.38110352 234.44067383 C29.24215004 237.25167694 26.31384671 240.2683518 23.35595703 243.26660156 C20.13368904 246.5156799 16.79394706 249.54011246 13.31469727 252.50708008 C10.87306718 254.68525875 8.5868732 256.98815391 6.28735352 259.31567383 C3.43211669 262.20557211 0.57235156 265.00019128 -2.52514648 267.62817383 C-6.28399463 270.8380624 -9.74007872 274.30356644 -13.21264648 277.81567383 C-17.26453087 281.9136941 -21.35869116 285.84694963 -25.75561523 289.57739258 C-29.08170859 292.53170704 -32.1496979 295.74586002 -35.27514648 298.90942383 C-37.96548554 301.56527136 -40.77838173 304.01702815 -43.65014648 306.47192383 C-46.10189337 308.66363695 -48.40150221 310.97634487 -50.71264648 313.31567383 C-53.56788331 316.20557211 -56.42764844 319.00019128 -59.52514648 321.62817383 C-63.28399463 324.8380624 -66.74007872 328.30356644 -70.21264648 331.81567383 C-74.26453087 335.9136941 -78.35869116 339.84694963 -82.75561523 343.57739258 C-86.08170859 346.53170704 -89.1496979 349.74586002 -92.27514648 352.90942383 C-94.95727749 355.55716854 -97.75825043 358.00346331 -100.62670898 360.44458008 C-104.12492356 363.58249165 -107.35298077 366.99007678 -110.61108398 370.37426758 C-112.71264648 372.31567383 -112.71264648 372.31567383 -114.71264648 372.31567383 C-114.71264648 372.97567383 -114.71264648 373.63567383 -114.71264648 374.31567383 C-116.11108398 375.69067383 -116.11108398 375.69067383 -118.08764648 377.31567383 C-121.46059796 380.17612738 -124.60938125 383.16437044 -127.71264648 386.31567383 C-131.23370971 389.87967685 -134.84450656 393.21871551 -138.65014648 396.47192383 C-141.10189337 398.66363695 -143.40150221 400.97634487 -145.71264648 403.31567383 C-148.58822308 406.22621184 -151.47138742 409.03991404 -154.58764648 411.69067383 C-158.1455085 414.72998106 -161.42706642 417.98931077 -164.71264648 421.31567383 C-168.56386262 425.21463478 -172.47686383 428.92391685 -176.65405273 432.47583008 C-179.27763113 434.82062215 -181.74257399 437.31195485 -184.21264648 439.81567383 C-188.03187932 443.67734259 -191.91342114 447.36717777 -196.05639648 450.87817383 C-196.60295898 451.35254883 -197.14952148 451.82692383 -197.71264648 452.31567383 C-198.23358289 452.68097859 -198.75451929 453.04628336 -199.29124165 453.42265797 C-201.50246651 456.36754996 -201.13437411 459.5013942 -201.1113739 463.04142761 C-201.11802073 463.83620004 -201.12466756 464.63097248 -201.1315158 465.44982892 C-201.15021662 468.1216295 -201.1475358 470.79298505 -201.14501953 473.46484375 C-201.15403238 475.37659847 -201.16435841 477.28834739 -201.17590332 479.2000885 C-201.20355553 484.39810731 -201.21276898 489.59601672 -201.21875739 494.79409957 C-201.22811971 500.22339856 -201.2543213 505.65261513 -201.27876282 511.0818634 C-201.32249059 521.36654412 -201.35099897 531.6512089 -201.3740862 541.93595439 C-201.40110426 553.64322454 -201.44501782 565.35041204 -201.49037492 577.05762327 C-201.58331111 601.14359536 -201.65495071 625.22959337 -201.71264648 649.31567383 C-200.9901194 649.50956286 -200.26759232 649.7034519 -199.52317047 649.90321636 C-194.49562672 651.26154846 -189.49404251 652.63916933 -184.54663086 654.27001953 C-183.46336014 654.62554901 -182.38008942 654.98107849 -181.26399231 655.34738159 C-180.12298569 655.72492584 -178.98197906 656.10247009 -177.80639648 656.49145508 C-175.93395566 657.10710555 -174.06151454 657.72275516 -172.18906116 658.33836746 C-170.21622329 658.98755401 -168.24383375 659.6380855 -166.27157593 660.28903198 C-162.15823336 661.64657696 -158.04361191 663.0002145 -153.92871094 664.35302734 C-152.54054191 664.80943087 -151.15237357 665.26583651 -149.76420593 665.72224426 C-149.07805395 665.94783335 -148.39190197 666.17342243 -147.6849575 666.40584755 C-145.60802364 667.08883316 -143.53120666 667.77217306 -141.454422 668.45561218 C-129.94341385 672.24328705 -118.42422766 676.00547415 -106.90014648 679.75317383 C-105.17723532 680.31401313 -103.45433487 680.87488534 -101.73144531 681.43579102 C-94.18437781 683.89189107 -86.63557803 686.342459 -79.08232117 688.77946472 C-75.66567509 689.88211172 -72.24977693 690.98706664 -68.83389282 692.09207153 C-66.58421567 692.81871931 -64.33343551 693.54184996 -62.08251953 694.26464844 C-50.35034997 698.051689 -38.69024467 702.04521301 -27.02832031 706.04199219 C-25.24750783 706.65184417 -23.46667759 707.26164429 -21.68582916 707.8713913 C-17.36122994 709.35222099 -13.03687162 710.83375212 -8.71264648 712.31567383 C-8.71725545 711.32045873 -8.72186441 710.32524363 -8.72661304 709.29987049 C-8.83755353 685.09708871 -8.91974794 660.89433985 -8.97170734 636.69135761 C-8.99750167 624.98701764 -9.03267584 613.28284552 -9.08984375 601.57861328 C-9.13964089 591.3785776 -9.17192855 581.17866346 -9.18308896 570.9785096 C-9.18961392 565.57629776 -9.20497524 560.17443366 -9.24129677 554.77233315 C-9.27519777 549.68912313 -9.28571129 544.60640459 -9.27818489 539.52309227 C-9.27956207 537.6562114 -9.28952959 535.78931434 -9.30867386 533.92253113 C-9.3335204 531.37506037 -9.32758328 528.82944965 -9.31391907 526.28193665 C-9.32848327 525.54165688 -9.34304748 524.80137712 -9.35805303 524.03866464 C-9.30059862 520.08110775 -8.81609894 518.44422472 -6.30006695 515.3177824 C-3.71264648 513.31567383 -3.71264648 513.31567383 -1.71264648 513.31567383 C-1.71264648 512.65567383 -1.71264648 511.99567383 -1.71264648 511.31567383 C-0.31420898 509.94067383 -0.31420898 509.94067383 1.66235352 508.31567383 C5.03530499 505.45522028 8.18408828 502.46697722 11.28735352 499.31567383 C14.80841674 495.7516708 18.41921359 492.41263215 22.22485352 489.15942383 C24.6766004 486.9677107 26.97620924 484.65500279 29.28735352 482.31567383 C32.778917 478.78159511 36.35363067 475.47005257 40.13500977 472.25317383 C43.44169365 469.27655821 46.52933897 466.08181715 49.60742188 462.87060547 C50.79792252 461.64932154 52.03905161 460.47781348 53.28735352 459.31567383 C53.94735352 459.31567383 54.60735352 459.31567383 55.28735352 459.31567383 C55.28735352 458.65567383 55.28735352 457.99567383 55.28735352 457.31567383 C56.68579102 455.94067383 56.68579102 455.94067383 58.66235352 454.31567383 C62.03530499 451.45522028 65.18408828 448.46697722 68.28735352 445.31567383 C71.8296755 441.73008684 75.46291013 438.36675721 79.29125977 435.09301758 C81.54867978 433.08298606 83.66471064 430.9673443 85.78735352 428.81567383 C88.45489437 426.1118399 91.14194843 423.52311848 94.03735352 421.06567383 C97.81467741 417.83228458 101.29418077 414.34867183 104.78735352 410.81567383 C108.83923501 406.71764991 112.93339826 402.78439797 117.33032227 399.05395508 C120.65641562 396.09964062 123.72440493 392.88548764 126.84985352 389.72192383 C129.54019258 387.06607629 132.35308876 384.61431951 135.22485352 382.15942383 C137.6766004 379.9677107 139.97620924 377.65500279 142.28735352 375.31567383 C145.80014085 371.76004763 149.3973237 368.42412777 153.20141602 365.18676758 C156.69963059 362.048856 159.9276878 358.64127088 163.18579102 355.25708008 C165.28735352 353.31567383 165.28735352 353.31567383 167.28735352 353.31567383 C167.28735352 352.65567383 167.28735352 351.99567383 167.28735352 351.31567383 C168.68579102 349.94067383 168.68579102 349.94067383 170.66235352 348.31567383 C174.03530499 345.45522028 177.18408828 342.46697722 180.28735352 339.31567383 C183.778917 335.78159511 187.35363067 332.47005257 191.13500977 329.25317383 C194.44169365 326.27655821 197.52933897 323.08181715 200.60742188 319.87060547 C201.79792252 318.64932154 203.03905161 317.47781348 204.28735352 316.31567383 C204.94735352 316.31567383 205.60735352 316.31567383 206.28735352 316.31567383 C206.28735352 315.65567383 206.28735352 314.99567383 206.28735352 314.31567383 C207.72094727 312.90551758 207.72094727 312.90551758 209.72485352 311.25317383 C212.89492569 308.56392389 215.87316876 305.78054006 218.78735352 302.81567383 C221.51564759 300.05006975 224.27252185 297.40280352 227.22485352 294.87817383 C230.39771272 292.15948135 233.35073733 289.28815708 236.28735352 286.31567383 C239.80014085 282.76004763 243.3973237 279.42412777 247.20141602 276.18676758 C250.69963059 273.048856 253.9276878 269.64127088 257.18579102 266.25708008 C259.28735352 264.31567383 259.28735352 264.31567383 261.28735352 264.31567383 C261.61735352 263.32567383 261.94735352 262.33567383 262.28735352 261.31567383 C263.78344727 259.84301758 263.78344727 259.84301758 265.72485352 258.25317383 C269.07893367 255.41510601 272.20424926 252.44643039 275.28735352 249.31567383 C278.80841674 245.7516708 282.41921359 242.41263215 286.22485352 239.15942383 C288.6766004 236.9677107 290.97620924 234.65500279 293.28735352 232.31567383 C296.16293011 229.40513582 299.04609445 226.59143361 302.16235352 223.94067383 C305.72021527 220.90136682 309.00177648 217.64204015 312.28735352 214.31567383 C316.15992526 210.39502547 320.09527592 206.66163195 324.29516602 203.08911133 C327.6319312 200.11873604 330.71513528 196.89485972 333.85375977 193.71801758 C335.91977717 191.6785301 338.01740901 189.76059583 340.22485352 187.87817383 C344.08879193 184.57626282 347.63940398 180.99320945 351.20532227 177.37817383 C354.55112453 174.00433412 358.01597904 170.83791054 361.62719727 167.75317383 C363.61280932 166.03386739 365.46877751 164.21002384 367.28735352 162.31567383 C371.74670766 163.93045195 374.25104877 167.36688604 377.22485352 170.87817383 C377.79333008 171.54292725 378.36180664 172.20768066 378.94750977 172.89257812 C385.36262012 180.47078049 391.37711314 188.34055868 397.28735352 196.31567383 C397.83423828 197.05221191 398.38112305 197.78875 398.94458008 198.54760742 C430.66511164 241.43458565 454.90238031 288.60205627 471.28735352 339.31567383 C471.61429199 340.31083008 471.94123047 341.30598633 472.27807617 342.33129883 C481.79490379 371.43340982 487.59316563 401.36939719 491.47485352 431.69067383 C491.64202881 432.98537598 491.8092041 434.28007813 491.98144531 435.61401367 C494.15963065 453.3110682 494.49430993 470.87974021 494.47485352 488.69067383 C494.47391693 489.80016388 494.47298035 490.90965393 494.47201538 492.05276489 C494.33273795 568.22516923 476.9292763 644.8044959 441.27954102 712.42114258 C440.17920589 714.52217618 439.10813493 716.63693354 438.03735352 718.75317383 C431.77322878 731.0241854 424.71270136 742.71577625 417.28735352 754.31567383 C416.57836914 755.42426758 415.86938477 756.53286133 415.13891602 757.67504883 C406.85596508 770.32664478 397.91859575 782.65785771 388.28735352 794.31567383 C387.60672852 795.15743164 386.92610352 795.99918945 386.22485352 796.86645508 C369.55607064 817.43454252 369.55607064 817.43454252 360.51782227 826.05786133 C358.59155083 828.0077473 356.8226004 830.00129636 355.04125977 832.08129883 C351.29002058 836.40291066 347.23281511 840.30492831 343.03735352 844.19067383 C342.2886499 844.88829834 341.53994629 845.58592285 340.76855469 846.3046875 C339.28169146 847.68808055 337.79306057 849.06957667 336.30249023 850.44897461 C334.60481088 852.02160077 332.91496965 853.60187997 331.22875977 855.18676758 C324.79640616 861.16035005 318.0173908 866.57404681 311.07250977 871.92895508 C309.32975968 873.2827325 307.60313081 874.65441581 305.88110352 876.03442383 C273.04951312 902.30158655 236.15469928 923.8091517 197.59985352 940.50317383 C196.26229004 941.0838562 196.26229004 941.0838562 194.89770508 941.67626953 C194.07367187 942.02520264 193.24963867 942.37413574 192.40063477 942.73364258 C191.31455933 943.19420044 191.31455933 943.19420044 190.20654297 943.6640625 C188.28735352 944.31567383 188.28735352 944.31567383 185.28735352 944.31567383 C185.28735352 808.02567383 185.28735352 671.73567383 185.28735352 531.31567383 C181.65735352 534.94567383 178.02735352 538.57567383 174.28735352 542.31567383 C173.62735352 542.31567383 172.96735352 542.31567383 172.28735352 542.31567383 C172.28735352 542.97567383 172.28735352 543.63567383 172.28735352 544.31567383 C170.95922852 545.62036133 170.95922852 545.62036133 169.03735352 547.19067383 C165.25704084 550.39455584 161.76066348 553.7888022 158.28735352 557.31567383 C154.436792 561.2152414 150.52307265 564.92397086 146.34594727 568.47583008 C143.2158219 571.2733425 140.30049694 574.28191889 137.35351562 577.26904297 C134.16176019 580.48732728 130.85798137 583.48292114 127.40454102 586.41333008 C124.10757071 589.37573698 121.03353455 592.56188767 117.96704102 595.76098633 C116.77662346 596.98219055 115.5355712 598.15361259 114.28735352 599.31567383 C113.62735352 599.31567383 112.96735352 599.31567383 112.28735352 599.31567383 C111.95735352 600.30567383 111.62735352 601.29567383 111.28735352 602.31567383 C109.82641602 603.75317383 109.82641602 603.75317383 107.91235352 605.31567383 C103.8375985 608.76242001 100.10223062 612.4684153 96.35620117 616.2668457 C93.15481107 619.49368758 89.83751 622.49422896 86.38110352 625.44067383 C83.74749824 627.79912631 81.26908838 630.30012786 78.78735352 632.81567383 C75.12724094 636.52565169 71.37819769 640.04149278 67.40454102 643.41333008 C64.10757071 646.37573698 61.03353455 649.56188767 57.96704102 652.76098633 C56.77662346 653.98219055 55.5355712 655.15361259 54.28735352 656.31567383 C53.62735352 656.31567383 52.96735352 656.31567383 52.28735352 656.31567383 C51.95735352 657.30567383 51.62735352 658.29567383 51.28735352 659.31567383 C49.82641602 660.75317383 49.82641602 660.75317383 47.91235352 662.31567383 C44.35554979 665.32429634 41.05880422 668.49865974 37.78735352 671.81567383 C34.77560229 674.86936148 31.7518171 677.85643803 28.47485352 680.62817383 C23.86765722 684.55141521 19.68696813 688.89077016 15.43408203 693.18847656 C12.34397636 696.29858022 9.24258312 699.33431088 5.91235352 702.19067383 C5.3593457 702.66899391 4.80633789 703.14731399 4.23657227 703.64012861 C2.91550471 704.7757161 1.57521966 705.88925494 0.21850586 706.98200655 C-3.77067295 710.48089679 -6.18404153 713.0547317 -6.71264648 718.45427704 C-6.75329275 720.42779904 -6.75051448 722.40252136 -6.71264648 724.37609863 C-6.72356544 725.46915896 -6.73448439 726.56221929 -6.74573421 727.68840265 C-6.7725617 731.34047715 -6.74253111 734.98982828 -6.71264648 738.6418457 C-6.72025432 741.26369422 -6.73137463 743.88553455 -6.7457428 746.50735474 C-6.77111272 752.1463227 -6.76739299 757.78466274 -6.74368286 763.42362976 C-6.70944535 771.57640548 -6.71943965 779.72865992 -6.7400862 787.88145953 C-6.77239192 801.10994109 -6.76913168 814.33816374 -6.7434082 827.56665039 C-6.71850283 840.41370605 -6.71040783 853.26059172 -6.72485352 866.10766602 C-6.72573872 866.90010505 -6.72662393 867.69254409 -6.72753596 868.50899643 C-6.73208046 872.48459467 -6.73695473 876.46019242 -6.74199295 880.43579006 C-6.7833364 913.39584489 -6.76691905 946.35563559 -6.71264648 979.31567383 C-8.476663 979.31892778 -10.24068125 979.32125166 -12.00469971 979.32318115 C-13.47820578 979.32527147 -13.47820578 979.32527147 -14.98147964 979.32740402 C-113.32463589 978.9050262 -214.33260708 939.69480769 -291.71264648 880.31567383 C-292.34702637 879.83291992 -292.98140625 879.35016602 -293.63500977 878.8527832 C-302.99007468 871.71988913 -311.91181861 864.1184356 -320.71264648 856.31567383 C-321.43170166 855.68636963 -322.15075684 855.05706543 -322.89160156 854.40869141 C-329.87014758 848.23368796 -336.47044163 841.71090105 -343.04541016 835.11328125 C-344.90406757 833.24924139 -346.76804263 831.39063871 -348.63256836 829.5324707 C-354.53791825 823.63071515 -360.34397307 817.71754585 -365.71264648 811.31567383 C-366.58913437 810.30558953 -367.46668627 809.29642721 -368.34545898 808.28833008 C-375.82089559 799.55917605 -382.8427474 790.52735455 -389.71264648 781.31567383 C-390.25711426 780.58687012 -390.80158203 779.85806641 -391.36254883 779.10717773 C-438.16989789 716.16416005 -468.55193182 641.70726694 -480.71264648 564.31567383 C-480.85154297 563.43524414 -480.99043945 562.55481445 -481.13354492 561.64770508 C-495.74372214 466.35497274 -479.63099369 367.85474993 -391.67358398 202.15161133 C-385.90271091 194.35851331 -379.94898193 186.74346063 -373.71264648 179.31567383 C-372.84150569 178.26883797 -371.97041411 177.22196117 -371.09936523 176.17504883 C-365.31226979 169.24911908 -359.3449741 162.52300159 -353.19555664 155.91625977 C-351.59180965 154.18524803 -350.00133657 152.44261142 -348.41186523 150.69848633 C-343.33210677 145.14407992 -338.31815338 139.70567957 -332.52514648 134.87817383 C-330.53436055 133.16197905 -328.7287535 131.32826816 -326.90014648 129.44067383 C-322.98847236 125.46764011 -318.75757922 122.00485589 -314.41186523 118.51879883 C-312.0605046 116.59959855 -309.8195079 114.62054043 -307.58764648 112.56567383 C-242.60354136 54.28811336 -155.17279127 18.44442727 -69.77514648 4.87817383 C-69.02928284 4.75834137 -68.28341919 4.63850891 -67.51495361 4.51504517 C-45.05967101 0.95791761 -22.7023195 -0.03913886 0 0 Z " fill="#EF3B2B" transform="translate(881.712646484375,413.684326171875)"/>
<path d="M0 0 C23.32314419 -0.11310764 46.64606441 -0.20511219 69.96941376 -0.25906086 C80.80018471 -0.28478208 91.63077246 -0.31981571 102.46142578 -0.37719727 C111.90749158 -0.42721909 121.35342462 -0.45933515 130.7996192 -0.47044247 C135.79586581 -0.47692957 140.79173278 -0.49204771 145.78785706 -0.52865028 C150.50258291 -0.5629073 155.21677733 -0.57299381 159.93161583 -0.56553841 C161.65036101 -0.56689981 163.36912631 -0.57665374 165.08776283 -0.59602737 C186.20382345 -0.82213188 204.03641172 5.88273421 220 20 C220.90105469 20.75990234 220.90105469 20.75990234 221.8203125 21.53515625 C236.54789685 34.92698295 244.09656036 54.6326761 245.11244059 74.16150808 C245.28745373 79.93665767 245.25106704 85.71268727 245.22705078 91.48974609 C245.22648545 93.41296889 245.2268056 95.33619212 245.22793579 97.25941467 C245.22850555 102.43821113 245.21681282 107.61691342 245.20278788 112.79568815 C245.19021713 118.22353852 245.18910504 123.65139147 245.18673706 129.07925415 C245.18054084 139.33881427 245.16415534 149.59833136 245.14403808 159.85787261 C245.12162102 171.54599787 245.11067109 183.23412528 245.10064721 194.92226672 C245.07978733 218.9482016 245.04464775 242.97409838 245 267 C223.14576367 267.20134686 201.2914408 267.38454956 179.4368763 267.54658794 C169.28774151 267.62225338 159.13871633 267.70369094 148.98974609 267.79907227 C140.13629803 267.88226307 131.28283897 267.9542619 122.42919528 268.01323253 C117.74816314 268.04479101 113.06731907 268.0816737 108.38644791 268.13199425 C103.96571636 268.17934049 99.54511453 268.21153491 95.12418365 268.2329216 C93.51591762 268.24322493 91.90767344 268.25870566 90.29951859 268.28024101 C74.21777862 268.48950356 58.74815087 266.82639874 44 260 C43.06929687 259.58105469 42.13859375 259.16210938 41.1796875 258.73046875 C22.93535067 249.71225667 9.61599179 232.36482964 3.078125 213.4921875 C0.80004782 206.11319837 -0.29000781 199.8858236 -0.22705078 192.1875 C-0.22729185 191.22505371 -0.22753292 190.26260742 -0.2277813 189.27099609 C-0.22629816 186.18056735 -0.21111145 183.09038513 -0.1953125 180 C-0.19236896 178.08203243 -0.19033044 176.16406325 -0.18920898 174.24609375 C-0.17875764 167.16403787 -0.15083509 160.08201647 -0.125 153 C-0.08375 137.16 -0.0425 121.32 0 105 C60.06 105 120.12 105 182 105 C182.35636486 85.07458331 182.35636486 85.07458331 174 68 C174 67.34 174 66.68 174 66 C173.43925781 65.7215625 172.87851563 65.443125 172.30078125 65.15625 C170.75020202 64.37701154 169.20596977 63.58502943 167.66796875 62.78125 C166.84941406 62.3584375 166.03085938 61.935625 165.1875 61.5 C164.37667969 61.0771875 163.56585937 60.654375 162.73046875 60.21875 C157.30890161 57.79882304 152.27097375 56.75071967 146.3497467 56.7215271 C145.05275848 56.71036362 143.75577026 56.69920013 142.41947937 56.68769836 C140.99978667 56.68533393 139.58009364 56.68315818 138.16040039 56.68115234 C136.65199247 56.67184524 135.14358966 56.66167541 133.63519287 56.65071106 C129.55516981 56.62348508 125.47518115 56.60828368 121.3950913 56.59528303 C117.12561314 56.57962001 112.85620486 56.55283993 108.58677673 56.5272522 C100.50865407 56.48052048 92.43051817 56.44374927 84.35232967 56.41057932 C75.15278279 56.37231827 65.9533062 56.32291856 56.75381863 56.27259517 C37.83592459 56.1693587 18.91800085 56.08154168 0 56 C0 37.52 0 19.04 0 0 Z M62 162 C60.91997753 183.65393018 60.91997753 183.65393018 70.1875 200.9375 C76.16816685 206.30173847 83.94229341 210.13109319 92.04962158 210.12025452 C92.84605072 210.12162918 93.64247986 210.12300385 94.46304321 210.12442017 C95.32763153 210.12082489 96.19221985 210.11722961 97.08300781 210.11352539 C98.00042755 210.11367142 98.91784729 210.11381744 99.86306763 210.1139679 C102.89311087 210.11327166 105.92309251 210.10549275 108.953125 210.09765625 C111.05491095 210.09579104 113.15669734 210.09436762 115.25848389 210.09336853 C120.78883058 210.08955144 126.31915099 210.07972801 131.8494873 210.06866455 C138.48581397 210.05663402 145.12214943 210.05204434 151.75848389 210.04621124 C161.83900754 210.03651586 171.91947352 210.01735362 182 210 C182 194.16 182 178.32 182 162 C142.4 162 102.8 162 62 162 Z " fill="#FCFCFC" transform="translate(1233,1546)"/>
<path d="M0 0 C1.74573756 0.00084806 3.49147619 0.00036765 5.23721313 -0.00132751 C9.93680246 -0.00218192 14.63615816 0.01535312 19.3356936 0.03639436 C24.26172185 0.05525449 29.18775652 0.05691891 34.11381531 0.06047058 C43.42429136 0.06976378 52.73466067 0.09434036 62.0450899 0.12451905 C72.65218778 0.15814829 83.25929098 0.17457043 93.86642897 0.18960536 C115.66973298 0.22089259 137.47289084 0.27587028 159.27612305 0.34057617 C159.27612305 18.82057617 159.27612305 37.30057617 159.27612305 56.34057617 C154.70937744 56.34992188 150.14263184 56.35926758 145.4375 56.36889648 C130.32608924 56.40270776 115.2148138 56.45808051 100.10351276 56.52447891 C90.94416848 56.56420105 81.78490927 56.59662809 72.62548828 56.61157227 C64.6373329 56.62462429 56.64936524 56.65167902 48.66131562 56.69518924 C44.4360186 56.7177246 40.21095242 56.73349165 35.98558998 56.73246002 C31.99882773 56.73170868 28.01257421 56.74984712 24.02594376 56.781744 C22.57206357 56.79017986 21.1181259 56.79203648 19.66423225 56.78637886 C7.37376003 56.74496678 -4.21433049 58.17157046 -13.84887695 66.40698242 C-24.56634887 77.45937533 -22.04612581 88.07454863 -22.72387695 104.34057617 C67.36612305 104.83557617 67.36612305 104.83557617 159.27612305 105.34057617 C159.35862305 120.87120117 159.44112305 136.40182617 159.52612305 152.40307617 C159.56253906 157.27839111 159.59895508 162.15370605 159.63647461 167.17675781 C159.65454102 173.20275879 159.65454102 173.20275879 159.65789795 176.03782654 C159.66397715 177.98720469 159.67791186 179.9365693 159.69842529 181.885849 C159.84998472 197.06748359 158.83197644 210.77556004 151.71362305 224.52807617 C151.3777417 225.18678711 151.04186035 225.84549805 150.69580078 226.52416992 C146.9489757 233.49280878 141.94120324 238.88773241 136.27612305 244.34057617 C135.54651367 245.07791992 134.8169043 245.81526367 134.06518555 246.57495117 C116.73680711 263.1947342 94.22789646 267.67521474 71.0546875 267.56762695 C69.33880113 267.56706183 67.62291429 267.56738136 65.9070282 267.56851196 C61.27968491 267.56908254 56.65244667 267.55737626 52.02512765 267.54336405 C47.17782397 267.53080726 42.33051751 267.5296823 37.48320007 267.52731323 C28.31789101 267.52111295 19.15263002 267.50472188 9.98734206 267.48461425 C-0.45285274 267.46220993 -10.89304992 267.45125045 -21.3332628 267.44122338 C-42.79683359 267.42035429 -64.26033853 267.38369629 -85.72387695 267.34057617 C-85.72387695 248.53057617 -85.72387695 229.72057617 -85.72387695 210.34057617 C-81.02024902 210.33123047 -76.31662109 210.32188477 -71.47045898 210.31225586 C-55.92396782 210.27847805 -40.37760866 210.22312485 -24.83122444 210.15667343 C-15.40611623 210.11691282 -5.98109116 210.08450521 3.4440918 210.06958008 C11.66184468 210.05654811 19.87941441 210.02954407 28.09706414 209.98596311 C32.44578422 209.96338297 36.79427869 209.94766341 41.14306259 209.94869232 C45.24225727 209.94944098 49.34095388 209.93140821 53.44001961 209.89940834 C54.93869948 209.89093926 56.43743541 209.88913896 57.93612862 209.89477348 C68.61841695 209.92956336 77.95210029 208.59652713 86.67456055 201.96166992 C97.751255 190.74989383 95.62372608 177.99810332 96.27612305 162.34057617 C36.21612305 162.34057617 -23.84387695 162.34057617 -85.72387695 162.34057617 C-85.78575195 146.41807617 -85.84762695 130.49557617 -85.91137695 114.09057617 C-85.93868896 109.08353516 -85.96600098 104.07649414 -85.99414062 98.91772461 C-86.00769043 92.7512207 -86.00769043 92.7512207 -86.01020813 89.85430908 C-86.01478155 87.85314934 -86.02526281 85.85199728 -86.04060364 83.85089111 C-86.1437829 69.66931344 -85.73823974 57.05016608 -79.03637695 44.21557617 C-78.68969971 43.53889893 -78.34302246 42.86222168 -77.98583984 42.16503906 C-74.88914682 36.30765784 -71.19212134 31.23916377 -66.72387695 26.34057617 C-66.21856445 25.74374023 -65.71325195 25.1469043 -65.19262695 24.53198242 C-48.3952332 5.97771841 -24.02601466 -0.16516715 0 0 Z " fill="#FCFCFC" transform="translate(808.723876953125,1545.659423828125)"/>
<path d="M0 0 C1.09543503 -0.00128164 1.09543503 -0.00128164 2.21300006 -0.00258917 C4.66047794 -0.00423651 7.10788731 0.00126521 9.55535889 0.00672913 C11.30962116 0.00701118 13.06388355 0.0068529 14.81814575 0.00628662 C19.58223008 0.00599938 24.34628929 0.01188439 29.11036777 0.01886058 C34.08851049 0.02510619 39.06665377 0.02569887 44.0447998 0.02688599 C53.47240265 0.02999573 62.89999391 0.03820433 72.32759166 0.04823548 C83.06024769 0.05940767 93.79290427 0.06490986 104.52556467 0.06993091 C126.60418887 0.08038723 148.6827972 0.0987283 170.76141357 0.12025452 C170.76141357 18.60025452 170.76141357 37.08025452 170.76141357 56.12025452 C166.19466797 56.12960022 161.62792236 56.13894592 156.92279053 56.14857483 C141.81137976 56.1823861 126.70010433 56.23775885 111.58880329 56.30415726 C102.42945901 56.34387939 93.2701998 56.37630644 84.11077881 56.39125061 C76.12262343 56.40430264 68.13465577 56.43135737 60.14660615 56.47486758 C55.92130913 56.49740294 51.69624295 56.51316999 47.47088051 56.51213837 C43.48411825 56.51138703 39.49786474 56.52952547 35.51123428 56.56142235 C34.0573541 56.5698582 32.60341643 56.57171482 31.14952278 56.56605721 C16.61772164 56.51709308 5.05661393 59.05547639 -5.48858643 69.30775452 C-12.68404047 80.87187709 -11.58061586 90.64490211 -12.23858643 105.12025452 C48.15141357 105.12025452 108.54141357 105.12025452 170.76141357 105.12025452 C170.84391357 120.27962952 170.92641357 135.43900452 171.01141357 151.05775452 C171.04782959 155.81044739 171.08424561 160.56314026 171.12176514 165.45985413 C171.13983154 171.34986877 171.13983154 171.34986877 171.14318848 174.12393188 C171.14925397 176.02488981 171.16315863 177.92583423 171.18371582 179.82669067 C171.41924651 202.79199889 167.71672549 222.50485234 151.76141357 240.12025452 C150.80428467 241.18179749 150.80428467 241.18179749 149.82781982 242.26478577 C136.08034382 256.73144563 115.96922061 266.3486385 95.98378944 267.30009842 C91.50254032 267.39065909 87.02182869 267.36811348 82.53997803 267.3473053 C80.82409166 267.34674018 79.10820481 267.34705971 77.39231873 267.34819031 C72.76497544 267.34876089 68.13773719 267.3370546 63.51041818 267.32304239 C58.66311449 267.3104856 53.81580804 267.30936065 48.9684906 267.30699158 C39.80318153 267.30079129 30.63792054 267.28440023 21.47263259 267.2642926 C11.03243778 267.24188828 0.59224061 267.23092879 -9.84797227 267.22090173 C-31.31153709 267.20003264 -52.77505872 267.16488504 -74.23858643 267.12025452 C-74.26171558 259.83603903 -74.27950444 252.55183142 -74.2903986 245.26758671 C-74.29562617 241.88553639 -74.30272153 238.50351112 -74.31402588 235.12147522 C-74.32692909 231.23695674 -74.33181566 227.35244855 -74.33624268 223.46791077 C-74.34140396 222.24814041 -74.34656525 221.02837006 -74.35188293 219.77163696 C-74.35195847 218.65055038 -74.352034 217.52946381 -74.35211182 216.37440491 C-74.35433243 215.38179153 -74.35655304 214.38917816 -74.35884094 213.3664856 C-74.23858643 211.12025452 -74.23858643 211.12025452 -73.23858643 210.12025452 C-71.25933473 210.01786935 -69.27638764 209.98670498 -67.29449463 209.98222351 C-65.35565147 209.9740435 -65.35565147 209.9740435 -63.37763977 209.96569824 C-61.93154912 209.9645783 -60.48545842 209.9635278 -59.03936768 209.96253967 C-57.52674715 209.95787378 -56.01412803 209.95273059 -54.50151062 209.94714355 C-51.23520031 209.93584054 -47.96889924 209.92741678 -44.70257568 209.92102432 C-39.53322945 209.91035928 -34.36394903 209.89011598 -29.19464111 209.86790466 C-14.49170973 209.80593812 0.21121899 209.752037 14.91424561 209.71888733 C23.02795332 209.70051341 31.14155193 209.67153756 39.25517941 209.63088262 C43.54849407 209.6098489 47.84167139 209.59436062 52.13504028 209.59207535 C56.17998898 209.58992004 60.22465239 209.57396112 64.26951408 209.54768562 C65.74927126 209.54052309 67.22906312 209.5383768 68.70883369 209.5417881 C80.82153116 209.56523761 89.58465954 208.31306774 98.76141357 200.12025452 C109.2688339 189.61283419 107.13483179 176.53163552 107.76141357 162.12025452 C47.70141357 162.12025452 -12.35858643 162.12025452 -74.23858643 162.12025452 C-74.32108643 146.07400452 -74.40358643 130.02775452 -74.48858643 113.49525452 C-74.52500244 108.45421448 -74.56141846 103.41317444 -74.59893799 98.21937561 C-74.61700439 91.99842834 -74.61700439 91.99842834 -74.62036133 89.0735321 C-74.62644876 87.05827792 -74.64040135 85.04303705 -74.66088867 83.02787781 C-74.88966093 59.31174403 -69.72671948 40.91863856 -52.86358643 23.37025452 C-41.13568313 12.14183603 -26.84240071 5.25459847 -11.23858643 1.12025452 C-10.67132465 0.94274941 -10.10406288 0.76524431 -9.51961136 0.58236027 C-6.32462492 -0.0649021 -3.2596822 -0.00229555 0 0 Z " fill="#FCFCFC" transform="translate(1052.2385864257813,1545.8797454833984)"/>
<path d="M0 0 C85.8 0 171.6 0 260 0 C260 24.42 260 48.84 260 74 C213.965 74.495 213.965 74.495 167 75 C167.00523682 83.93118896 167.01047363 92.86237793 167.01586914 102.06420898 C167.03190289 130.60703968 167.04303548 159.14987038 167.05106533 187.69270441 C167.05231611 192.12269162 167.05361042 196.55267882 167.05493164 200.98266602 C167.05532511 202.30561959 167.05532511 202.30561959 167.05572652 203.65529949 C167.0600835 217.95534931 167.06797121 232.25539512 167.0771528 246.55544256 C167.08648855 261.21735804 167.09205544 275.87927141 167.09408849 290.54118973 C167.09546389 299.59587761 167.09981534 308.65055419 167.10791647 317.70523859 C167.11318296 323.90568934 167.11480452 330.10613421 167.11350138 336.30658703 C167.11285784 339.88941512 167.11387721 343.47222338 167.11920547 347.05504799 C167.1249267 350.93017437 167.1230011 354.8052745 167.12025452 358.68040466 C167.12462378 360.39778002 167.12462378 360.39778002 167.12908131 362.14984983 C167.12709026 363.17944258 167.12509921 364.20903532 167.12304783 365.26982784 C167.12342755 366.1655881 167.12380727 367.06134836 167.1241985 367.98425287 C167 370 167 370 166 371 C141.91 371 117.82 371 93 371 C93 272.99 93 174.98 93 74 C62.31 74 31.62 74 0 74 C0 49.58 0 25.16 0 0 Z " fill="#FEFEFE" transform="translate(175,1443)"/>
<path d="M0 0 C25.90248493 21.82014174 44.14591917 53.89260918 47.37646484 87.90307617 C47.64797163 94.14773217 47.62646484 100.40252064 47.62646484 106.65307617 C-16.39353516 106.65307617 -80.41353516 106.65307617 -146.37353516 106.65307617 C-142.38823298 125.25115299 -136.1012414 136.9735741 -120.38085938 147.53149414 C-108.12513719 155.45248622 -94.81927582 160.47827079 -80.68603516 163.90307617 C-80.02192627 164.06630371 -79.35781738 164.22953125 -78.67358398 164.39770508 C-45.95538122 171.90103696 -7.30594632 166.70777032 21.50146484 149.27807617 C29.34349878 144.00681426 36.19136853 137.95890294 41.47021484 130.08666992 C41.85177734 129.61358398 42.23333984 129.14049805 42.62646484 128.65307617 C43.28646484 128.65307617 43.94646484 128.65307617 44.62646484 128.65307617 C44.09352562 134.8061018 43.10929103 140.309648 41.12646484 146.15307617 C40.73442871 147.30984863 40.73442871 147.30984863 40.33447266 148.48999023 C28.61746118 181.5915589 2.29520391 209.63808321 -29.25146484 224.69897461 C-63.80958263 240.23660971 -101.34265958 240.91867097 -136.68212891 227.56323242 C-167.93334231 215.16820958 -191.58499188 190.88864147 -207.37353516 161.65307617 C-207.83759766 160.79456055 -208.30166016 159.93604492 -208.77978516 159.05151367 C-223.43320823 129.46287093 -224.27102046 92.71709371 -214.37353516 61.65307617 C-214.12216797 60.7172168 -213.87080078 59.78135742 -213.61181641 58.81713867 C-209.15945249 43.30988092 -199.79025163 28.82741199 -189.37353516 16.65307617 C-188.94073242 16.14341309 -188.50792969 15.63375 -188.06201172 15.10864258 C-140.34872332 -40.60333076 -56.17630222 -46.30586201 0 0 Z M-123.37353516 33.65307617 C-124.06189453 34.17643555 -124.75025391 34.69979492 -125.45947266 35.23901367 C-137.19864181 44.81925516 -144.19447203 58.8071014 -146.37353516 73.65307617 C-146.37353516 76.29307617 -146.37353516 78.93307617 -146.37353516 81.65307617 C-105.78353516 81.65307617 -65.19353516 81.65307617 -23.37353516 81.65307617 C-23.37353516 75.13809307 -23.48885621 70.74300878 -25.43603516 64.84057617 C-25.65501465 64.15769531 -25.87399414 63.47481445 -26.09960938 62.77124023 C-28.80024265 54.79048684 -32.91567561 47.10601508 -38.37353516 40.65307617 C-39.03353516 40.65307617 -39.69353516 40.65307617 -40.37353516 40.65307617 C-40.86853516 39.16807617 -40.86853516 39.16807617 -41.37353516 37.65307617 C-48.29019193 31.4766636 -55.7295946 26.99502383 -64.37353516 23.65307617 C-65.42541016 23.24057617 -66.47728516 22.82807617 -67.56103516 22.40307617 C-87.02471069 17.2127627 -107.45753945 21.5521506 -123.37353516 33.65307617 Z " fill="#FCFCFC" transform="translate(665.37353515625,1577.346923828125)"/>
<path d="M0 0 C1.79679955 -0.00472824 1.79679955 -0.00472824 3.62989807 -0.009552 C5.57834877 -0.00651566 5.57834877 -0.00651566 7.56616211 -0.00341797 C8.90612302 -0.00409129 10.24608382 -0.00506155 11.58604431 -0.00631714 C14.39461429 -0.00779228 17.20315247 -0.0056451 20.01171875 -0.00097656 C23.61897588 0.00472613 27.22615871 0.00143717 30.83341312 -0.00454903 C33.59997624 -0.0081549 36.36652161 -0.00701603 39.13308525 -0.00442123 C41.11241072 -0.00342614 43.09173686 -0.00647234 45.07106018 -0.009552 C46.26577438 -0.00639984 47.46048859 -0.00324768 48.69140625 0 C50.27786705 0.00119339 50.27786705 0.00119339 51.89637756 0.00241089 C54.28100586 0.12939453 54.28100586 0.12939453 55.28100586 1.12939453 C55.37636828 4.29552116 55.40651222 7.43980081 55.39453125 10.60620117 C55.39467728 11.6012114 55.3948233 12.59622162 55.39497375 13.62138367 C55.39427417 16.92746115 55.38647965 20.23348308 55.37866211 23.53955078 C55.37679809 25.82498646 55.37537411 28.11042254 55.37437439 30.39585876 C55.37054793 36.4243784 55.36071656 42.45287412 55.34967041 48.48138428 C55.33766511 55.70750687 55.33305466 62.93363745 55.3272171 70.15976715 C55.31750487 81.1496596 55.2983492 92.13949953 55.28100586 103.12939453 C85.31100586 103.12939453 115.34100586 103.12939453 146.28100586 103.12939453 C146.28100586 121.60939453 146.28100586 140.08939453 146.28100586 159.12939453 C116.25100586 159.12939453 86.22100586 159.12939453 55.28100586 159.12939453 C55.40093188 181.35992768 55.40093188 181.35992768 55.53881836 203.59033203 C55.59908477 212.66452754 55.65743531 221.73870482 55.70288086 230.81298828 C55.73599761 237.42370583 55.77593467 244.03434247 55.82379591 250.6449703 C55.84886707 254.13973987 55.87070347 257.63445713 55.88434982 261.12929153 C55.89977558 265.04690304 55.93044033 268.964321 55.9621582 272.88183594 C55.96431839 274.01904587 55.96647858 275.1562558 55.96870422 276.32792664 C56.08408129 287.57102323 57.27420063 298.67404586 61.03100586 309.31689453 C61.42678833 310.46085693 61.42678833 310.46085693 61.83056641 311.62792969 C69.75681857 333.84027973 85.88827107 351.42660111 106.85522461 361.98876953 C112.55512513 364.66328731 118.34474018 367.03424194 124.28100586 369.12939453 C124.28100586 369.78939453 124.28100586 370.44939453 124.28100586 371.12939453 C116.03034524 371.06777389 107.78003801 370.99038101 99.52972126 370.89367962 C95.6974078 370.84923925 91.86519423 370.80992798 88.03271484 370.78295898 C84.32367845 370.75665956 80.61503212 370.71607726 76.90624046 370.66620827 C75.50195411 370.64971724 74.09760057 370.6380938 72.69323158 370.63178062 C50.99901361 370.52453605 32.23343889 363.84405962 16.13647461 349.00830078 C-1.65254585 330.9945769 -7.90344326 309.79867411 -7.83924866 284.93005371 C-7.84010308 283.71448681 -7.84095751 282.49891992 -7.84183782 281.24651766 C-7.84319577 277.88970465 -7.84008717 274.53295047 -7.83505976 271.1761446 C-7.83072855 267.54980283 -7.83220358 263.92346277 -7.83296204 260.29711914 C-7.83348558 254.01992872 -7.83035649 247.74274872 -7.8247242 241.46556091 C-7.81658623 232.3898777 -7.81399162 223.31419952 -7.81273621 214.23851305 C-7.8105493 199.51268423 -7.803899 184.78686096 -7.79443359 170.06103516 C-7.78525014 155.7589521 -7.77817387 141.45687056 -7.77392578 127.15478516 C-7.77366306 126.27273625 -7.77340033 125.39068735 -7.77312965 124.48190969 C-7.77182458 120.05678969 -7.77056088 115.63166967 -7.76931775 111.20654964 C-7.75895638 74.51416069 -7.74134788 37.82177804 -7.71899414 1.12939453 C-5.0442135 -0.20799579 -2.99498559 0.00225124 0 0 Z " fill="#FCFCFC" transform="translate(1494.718994140625,1442.87060546875)"/>
<path d="M0 0 C85.8 0 171.6 0 260 0 C260 24.42 260 48.84 260 74 C213.965 74.495 213.965 74.495 167 75 C167.00523682 83.93118896 167.01047363 92.86237793 167.01586914 102.06420898 C167.03190289 130.60703968 167.04303548 159.14987038 167.05106533 187.69270441 C167.05231611 192.12269162 167.05361042 196.55267882 167.05493164 200.98266602 C167.05532511 202.30561959 167.05532511 202.30561959 167.05572652 203.65529949 C167.0600835 217.95534931 167.06797121 232.25539512 167.0771528 246.55544256 C167.08648855 261.21735804 167.09205544 275.87927141 167.09408849 290.54118973 C167.09546389 299.59587761 167.09981534 308.65055419 167.10791647 317.70523859 C167.11318296 323.90568934 167.11480452 330.10613421 167.11350138 336.30658703 C167.11285784 339.88941512 167.11387721 343.47222338 167.11920547 347.05504799 C167.1249267 350.93017437 167.1230011 354.8052745 167.12025452 358.68040466 C167.12462378 360.39778002 167.12462378 360.39778002 167.12908131 362.14984983 C167.12709026 363.17944258 167.12509921 364.20903532 167.12304783 365.26982784 C167.12342755 366.1655881 167.12380727 367.06134836 167.1241985 367.98425287 C167 370 167 370 166 371 C141.91 371 117.82 371 93 371 C93 272.99 93 174.98 93 74 C62.31 74 31.62 74 0 74 C0 73.67 0 73.34 0 73 C31.02 73 62.04 73 94 73 C94 170.68 94 268.36 94 369 C117.43 369 140.86 369 165 369 C165 271.32 165 173.64 165 73 C196.02 73 227.04 73 259 73 C259 49.57 259 26.14 259 2 C173.53 2 88.06 2 0 2 C0 1.34 0 0.68 0 0 Z " fill="#C0C0C0" transform="translate(175,1443)"/>
<path d="M0 0 C0.66 0.33 1.32 0.66 2 1 C-0.72082744 3.77912769 -3.45306597 6.54676419 -6.1875 9.3125 C-6.95642578 10.09818359 -7.72535156 10.88386719 -8.51757812 11.69335938 C-9.26845703 12.45068359 -10.01933594 13.20800781 -10.79296875 13.98828125 C-11.4789917 14.68477783 -12.16501465 15.38127441 -12.87182617 16.09887695 C-15.10535927 18.09411869 -17.39023278 19.54259753 -20 21 C-20.66 20.01 -21.32 19.02 -22 18 C-21.16597656 17.3709375 -20.33195313 16.741875 -19.47265625 16.09375 C-12.73487252 10.97997578 -6.21570193 5.74992581 0 0 Z " fill="#FCDAD7" transform="translate(907,1094)"/>
<path d="M0 0 C1.98 0.33 3.96 0.66 6 1 C6.495 2.485 6.495 2.485 7 4 C-22.205 3.505 -22.205 3.505 -52 3 C-52 2.67 -52 2.34 -52 2 C-34.84 1.67 -17.68 1.34 0 1 C0 0.67 0 0.34 0 0 Z " fill="#B4B4B4" transform="translate(1612,1810)"/>
<path d="M0 0 C-1.50864709 3.01729419 -3.80462514 3.36592542 -6.875 4.625 C-7.94492188 5.07101562 -9.01484375 5.51703125 -10.1171875 5.9765625 C-13 7 -13 7 -16 7 C-16 5.68 -16 4.36 -16 3 C-10.28264895 0.54970669 -6.20970773 -0.33266291 0 0 Z " fill="#FBD3D0" transform="translate(1083,1351)"/>
<path d="M0 0 C0.66 0.33 1.32 0.66 2 1 C-3.94 6.94 -9.88 12.88 -16 19 C-16.66 18.67 -17.32 18.34 -18 18 C-12.37361021 11.50903494 -6.55902307 5.55113536 0 0 Z " fill="#C2C2C2" transform="translate(495,1575)"/>
<path d="M0 0 C0.66 0.33 1.32 0.66 2 1 C-3.94 6.94 -9.88 12.88 -16 19 C-16 13.49581073 -10.69222469 9.76817235 -7 6 C-4.72454022 3.90179524 -2.40856363 1.94734932 0 0 Z " fill="#C7C7C7" transform="translate(753,1562)"/>
<path d="M0 0 C0.66 0.33 1.32 0.66 2 1 C-0.61691164 3.67470955 -3.24481708 6.33834481 -5.875 9 C-6.62136719 9.763125 -7.36773438 10.52625 -8.13671875 11.3125 C-8.85214844 12.034375 -9.56757812 12.75625 -10.3046875 13.5 C-11.2944458 14.50546875 -11.2944458 14.50546875 -12.30419922 15.53125 C-14 17 -14 17 -16 17 C-13.02550302 10.00118357 -5.98898148 4.44343788 0 0 Z " fill="#CBCBCB" transform="translate(1009,1561)"/>
<path d="M0 0 C0.66 0.33 1.32 0.66 2 1 C-1.3 4.3 -4.6 7.6 -8 11 C-8.33 10.01 -8.66 9.02 -9 8 C-6.03 5.36 -3.06 2.72 0 0 Z " fill="#FACBC7" transform="translate(907,1094)"/>
<path d="M0 0 C0.66 0 1.32 0 2 0 C1.5547115 5.27315333 0.91626837 10.01770224 -1 15 C-2.24451915 11.40472245 -1.70603283 8.68706033 -1 5 C-1 4.01 -1 3.02 -1 2 C-0.67 1.34 -0.34 0.68 0 0 Z " fill="#B4B4B4" transform="translate(708,1706)"/>
<path d="M0 0 C2.64 0 5.28 0 8 0 C7.67 0.66 7.34 1.32 7 2 C4.35139573 2.59355614 1.70802678 2.74209269 -1 3 C-0.67 2.01 -0.34 1.02 0 0 Z " fill="#FAC4BF" transform="translate(1075,1351)"/>
</svg>
