<svg xmlns="http://www.w3.org/2000/svg" width="1800" height="2230" style="shape-rendering:geometricPrecision;text-rendering:geometricPrecision;image-rendering:optimizeQuality;fill-rule:evenodd;clip-rule:evenodd"><path style="opacity:.993" fill="#ef3b2b" d="M852.5 413.5c79.165-4.64 155.16 8.527 228 39.5a218 218 0 0 1 25 12.5 237628 237628 0 0 0-425.5 403 6273 6273 0 0 0 .5 194 40935 40935 0 0 0 191 63c.833-64.66 1.333-129.331 1.5-194a189313 189313 0 0 1 376.5-356c76.63 85.659 118.46 186.326 125.5 302 4.47 159.38-52.36 291.88-170.5 397.5-41.01 34.44-86.35 62.27-136 83.5-1.45-.67-2.11-1.84-2-3.5-.16-137.09 0-274.26.5-411.5a25187 25187 0 0 0-192 183c-.5 88.67-.667 177.33-.5 266-155.174-6.83-281.007-70.5-377.5-191q-129.64-174.077-93-389Q443.3 623.523 596.5 508q114.528-82.983 256-94.5"/><path style="opacity:.157" fill="#cdcdcd" d="M434.5 1515.5h-1v-71h-259c86.327-2 172.994-2.66 260-2z"/><path style="opacity:.687" fill="#a2a2a2" d="M1549.5 1444.5h-62v295c-1.33-98.5-1.33-197.17 0-296 20.06.31 40.23-.02 60.5-1 .72.54 1.22 1.21 1.5 2"/><path style="opacity:.999" fill="#fefefe" d="M174.5 1444.5h259v71h-94v296h-71v-296h-94z"/><path style="opacity:.992" fill="#fdfdfd" d="M1549.5 1444.5v101h91v56h-91v123c-1.24 4.41-.91 8.75 1 13v1c-.21 3 .46 5.66 2 8q-.555 5.31 3 9c-.34 1.98.32 3.32 2 4 1.61 2.88 2.94 5.88 4 9-.07 1.53.59 2.53 2 3-.07 1.53.59 2.53 2 3-.07 1.53.59 2.53 2 3 .24 1.9 1.24 3.24 3 4 5.73 5.73 11.73 11.07 18 16 .32 1.55 1.32 2.21 3 2 1.23 2.3 3.23 3.63 6 4q3.48.735 6 3c1.93 1.79 4.26 2.79 7 3h1c.42.72 1.08 1.22 2 1.5q-27.255.255-54 1.5c-2.74.1-5.4-.23-8-1-.63-1.45-1.8-2.11-3.5-2-1.07.03-1.9.36-2.5 1h-1c-2.14-2.84-5.14-4.17-9-4-1.11-.06-2.11-.39-3-1-1.16-1.75-2.83-2.75-5-3-.99.17-1.66-.16-2-1-.47-1.41-1.47-2.07-3-2-.47-1.41-1.47-2.07-3-2-.47-1.41-1.47-2.07-3-2a6.6 6.6 0 0 1-3-3c-1.08-2.09-2.75-3.42-5-4a39.5 39.5 0 0 1-9-12c.21-1.68-.45-2.68-2-3-1.86-2.38-3.19-5.05-4-8-.09-2.29-.76-4.29-2-6-.43-3.93-1.43-7.59-3-11-.9-2.89-1.24-5.89-1-9v-295z"/><path style="opacity:.765" fill="#b9b9b9" d="M433.5 1515.5h1c-31.333.67-62.667 1.33-94 2q.499 147.255-1 294v-296z"/><path style="opacity:.008" fill="#a1a1a1" d="M340.5 1517.5c1.166 98.17 1.332 196.5.5 295-.383.56-.883.89-1.5 1v-2q1.499-146.745 1-294"/><path style="opacity:.659" fill="#c7c7c7" d="M174.5 1515.5h94v296h71v2h-72v-297c-31.171.33-62.171 0-93-1"/><path style="opacity:.998" fill="#fdfdfd" d="M576.5 1545.5h4c2.64.92 5.473 1.59 8.5 2 1.07-.03 1.903-.36 2.5-1 4.14.03 8.14.7 12 2q5.495 2.88 12 3h1c3.731 3.02 8.064 4.69 13 5 6.087 1.88 11.754 4.54 17 8 1.233 2.3 3.233 3.63 6 4q4.55 2.28 8 6c.473 1.41 1.473 2.07 3 2 1.667 1 3 2.33 4 4 3.333 4 7 7.67 11 11 1 .33 1.667 1 2 2 .238 1.9 1.238 3.24 3 4 .58 2.25 1.913 3.92 4 5q-.11 2.295 2 3 1.352 1.185 2 3-.11 2.295 2 3c1.841 2.35 3.174 5.02 4 8q-.11 2.295 2 3a32.6 32.6 0 0 1 4 10c-.38 2.2.287 3.86 2 5v1c-.105 3.76.895 7.09 3 10v1c.125 5.94 1.125 11.61 3 17v16h-194c-.268 1.6.066 2.93 1 4v2q-.895.36-1 1.5 1.008 5.79 4 10.5-.11 2.295 2 3c.838.34 1.172 1.01 1 2q-.11 2.295 2 3-.11 2.295 2 3c1 .33 1.667 1 2 2 .667 2.67 2.333 4.33 5 5a16.66 16.66 0 0 1 6 5c.473 1.41 1.473 2.07 3 2 .473 1.41 1.473 2.07 3 2 1.836 2.09 4.169 3.42 7 4q2.889 2.685 7 3 2.889 2.685 7 3h1c1.602 1.57 3.602 2.24 6 2a152 152 0 0 0 24 4c.634 1.45 1.801 2.11 3.5 2 1.07-.03 1.903-.36 2.5-1h23c1.955 1.43 3.621 1.1 5-1h7q7.57.345 14-3c0-.67.333-1 1-1 1.628 1.35 2.962 1.02 4-1 1.542-.8 3.208-1.13 5-1 2.053.1 3.72-.57 5-2q6.217-3.36 13-6c1.527.07 2.527-.59 3-2q2.099-2.085 5-3c2.295-.64 3.961-1.97 5-4 4.333-2.33 7.667-5.67 10-10-.172-.99.162-1.66 1-2 .992-.17 1.658.16 2 1v1c-1.777 3-2.777 6.34-3 10q-1.857 2.565-2 6 .356 1.935-1 3c-1.431 1.28-2.098 2.95-2 5-7.244 17.15-17.911 31.82-32 44q-2.857.36-4 3c-.333 1-1 1.67-2 2-1.527-.07-2.527.59-3 2q-3.405 3.705-8 6-3.261.375-5 3c-1.527-.07-2.527.59-3 2h-1q-3.261.375-5 3-3.884-.06-6 3h-1c-1.88-.27-3.213.4-4 2h-1q-4.724-.12-8 3a108.5 108.5 0 0 1-14 4c-1.122-.66-2.455-.99-4-1-1.833.09-3.166.75-4 2h-1c-.949-.65-2.115-.99-3.5-1-1.681.11-2.848.77-3.5 2h-19c-1.82-1.96-3.82-2.29-6-1h-2q-.166-.93-1-1.5l-7.5-1.5c-1.07.03-1.903.36-2.5 1h-1q-2.874-3.72-8-3h-3q-1.66-3.705-6-3c-3.611-2.43-7.611-4.1-12-5q-3.426-.72-6-3c-.473-1.41-1.473-2.07-3-2-.473-1.41-1.473-2.07-3-2s-2.527-.59-3-2-1.473-2.07-3-2q-1.144-2.64-4-3-1.144-2.64-4-3c-.667-.33-1.333-.67-2-1-.333-2.33-1.667-3.67-4-4-3-2.33-5.667-5-8-8 0-1.33-.667-2-2-2a83.3 83.3 0 0 1-14-20q.11-2.295-2-3-3.187-3.885-4-9c-.16-1.65-.826-2.99-2-4-.838-.34-1.172-1.01-1-2q-.143-3.435-2-6c-.838-.34-1.172-1.01-1-2 .18-3.79-.82-7.12-3-10v-1c.249-3.96-.418-7.62-2-11-2.638-13.33-2.638-26.66 0-40 1.511-3.04 2.178-6.38 2-10v-2q3.459-5.37 4-12c1.431-1.28 2.098-2.95 2-5v-1c1.174-1.01 1.84-2.35 2-4s.826-2.99 2-4 1.84-2.35 2-4 .826-2.99 2-4q2.11-.705 2-3c-.172-.99.162-1.66 1-2q2.11-.705 2-3c1.762-.76 2.762-2.1 3-4s1.238-3.24 3-4 2.762-2.1 3-4c.333-1 1-1.67 2-2 4-3.33 7.667-7 11-11q4.391-1.89 7-6c1.079-2.04 2.746-3.38 5-4 1.527.07 2.527-.59 3-2 .342-.84 1.008-1.17 2-1 1.527.07 2.527-.59 3-2q3.261-.375 5-3c3.015-2.17 6.349-3.84 10-5 3.827-.25 7.16-1.58 10-4h1c2.286-.09 4.286-.76 6-2q5.126.72 8-3h2c.597.64 1.43.97 2.5 1q5.263-.48 9.5-3h3c3.397.99 6.73.66 10-1m-1 52h9c1.333.33 2.667.67 4 1a62 62 0 0 1 15 3q2.522 2.265 6 3c.342.84 1.008 1.17 2 1 .473 1.41 1.473 2.07 3 2 .473 1.41 1.473 2.07 3 2 1.411 2.41 3.411 4.08 6 5a21.7 21.7 0 0 0 5 6c.526 1.73 1.526 3.06 3 4-.172.99.162 1.66 1 2q.648 1.815 2 3a55 55 0 0 0 4 9c.221 2.57.888 4.9 2 7 .7 4.3 1.033 8.63 1 13h-123c.086-4.36.42-8.69 1-13v-1c1.424-2.01 2.09-4.35 2-7 .838-.34 1.172-1.01 1-2 1.174-1.01 1.84-2.35 2-4a94 94 0 0 1 7-11c1-.33 1.667-1 2-2a25.8 25.8 0 0 1 6-6c1-.33 1.667-1 2-2 .667 0 1-.33 1-1 1.527.07 2.527-.59 3-2a36 36 0 0 0 7-4c1.653-.16 2.986-.83 4-2 1.291.24 2.291-.1 3-1 2.286-.09 4.286-.76 6-2h2c2.737.1 5.404-.23 8-1"/><path style="opacity:.99" fill="#fefefe" d="M792.5 1545.5h175v56h-153c-3.053-.39-5.72.28-8 2-2.601 1.3-5.268 2.63-8 4-1.527-.07-2.527.59-3 2-2.362 2.69-4.696 5.36-7 8-1.174 1.01-1.84 2.35-2 4q-1.65 2.67-2.5 6-.75 11.985-.5 24h184v91c-1.225.65-1.892 1.82-2 3.5a55.4 55.4 0 0 0-1 9.5v1c-1.431 1.28-2.098 2.95-2 5-4.193 12.53-11.526 22.87-22 31-1.527-.07-2.527.59-3 2q-1.144 2.64-4 3c-1.527-.07-2.527.59-3 2a201 201 0 0 0-17 8c-.709.9-1.709 1.24-3 1-2.85.14-5.683.47-8.5 1-1.681.11-2.848.77-3.5 2-58.625.99-117.292 1.33-176 1v-55c51.334.17 102.668 0 154-.5 5.028-.49 9.362-2.32 13-5.5.342-.84 1.008-1.17 2-1q2.856-.36 4-3c.333-1 1-1.67 2-2 1.762-.76 2.762-2.1 3-4q.738-3.48 3-6c1.293-1.34 2.126-3.01 2.5-5q1.248-12.03-.5-24c-.607.12-.94.46-1 1h-182v-93q2.12-4.08 2-9v-1q2.715-3.96 3-9 .813-5.115 4-9 2.11-.705 2-3 2.11-.705 2-3c1.762-.76 2.762-2.1 3-4q3.621-2.115 5-6 4.391-1.89 7-6c3.303-3.66 7.303-6.32 12-8 1.527.07 2.527-.59 3-2q4.472.48 7-3c4.526-.4 8.526-1.73 12-4 1.542-.8 3.208-1.13 5-1 1.447 1.39 2.447 1.05 3-1"/><path style="opacity:.996" fill="#fefefe" d="M1047.5 1545.5h96c25.49 1 51.16 1.33 77 1v54c-49.84-.33-99.5 0-149 1-3.3.79-6.64 1.46-10 2-2.99-.33-5.32.67-7 3-5.42 4.09-9.76 9.09-13 15-1.29 1.34-2.13 3.01-2.5 5-.82 8.51-.66 16.84.5 25 60.16 1 120.5 1.33 181 1v88c-.33 4.67-.67 9.33-1 14-1.42 2.01-2.09 4.35-2 7-5.38 15.42-15.05 27.42-29 36-1.53-.07-2.53.59-3 2-.34.84-1.01 1.17-2 1-1.53-.07-2.53.59-3 2-2.05-.1-3.72.57-5 2-2.74.21-5.07 1.21-7 3h-1c-3.66.22-7 1.22-10 3h-1c-3.83-.57-7.16.1-10 2h-3c-54.83-1-109.83-1.33-165-1v-54c51.34.66 102.34 0 153-2h1c.24.6.74.93 1.5 1 3.4-.37 6.24-1.71 8.5-4 .34-.84 1.01-1.17 2-1 2.13-.05 3.47-1.05 4-3 3.33-1.33 5.67-3.67 7-7a32.8 32.8 0 0 1 3-7c.72-.42 1.22-1.08 1.5-2 .82-8.51.66-16.84-.5-25h-181c-.285-34.35.049-68.68 1-103-.268-1.6.066-2.93 1-4q1.857-2.565 2-6a5.7 5.7 0 0 1 1-3q2.11-.705 2-3c-.172-.99.162-1.66 1-2q2.11-.705 2-3c-.172-.99.162-1.66 1-2 1.762-.76 2.762-2.1 3-4 2.087-1.08 3.42-2.75 4-5 1-1.67 2.333-3 4-4 2.25-.58 3.92-1.91 5-4 2.25-.58 3.92-1.91 5-4 1.53.07 2.53-.59 3-2 .34-.84 1.01-1.17 2-1 2.83-.58 5.16-1.91 7-4 2.05.1 3.72-.57 5-2q5.13-.045 9-3h1c2.2.38 3.86-.29 5-2h1c.42.62 1.08.96 2 1 1.21-.25 1.88-.91 2-2"/><path style="opacity:.995" fill="#fefefe" d="M1411.5 1545.5c.55 2.05 1.55 2.39 3 1 1.46-.07 2.79.27 4 1 2.1 1.98 4.76 2.98 8 3q12.165 3.315 21 12c1.08 2.09 2.75 3.42 5 4 1 .33 1.67 1 2 2 .92 2.59 2.59 4.59 5 6 .24 1.9 1.24 3.24 3 4-.07 1.53.59 2.53 2 3-.07 1.53.59 2.53 2 3 .84.34 1.17 1.01 1 2-.07 1.53.59 2.53 2 3 .61.89.94 1.89 1 3-.38 2.2.29 3.86 2 5v1c.22 3.66 1.22 7 3 10 .77 2.6 1.1 5.26 1 8-1 64.83-1.33 129.83-1 195-56.17-.33-112.17 0-168 1h-4c-.65-1.23-1.82-1.89-3.5-2-3.01-.94-5.85-.94-8.5 0h-1c-1.59-2.32-3.92-3.32-7-3-1.28-1.43-2.95-2.1-5-2q-3.48-.735-6-3c-1.16-1.75-2.83-2.75-5-3-.76-1.76-2.1-2.76-4-3-.76-1.76-2.1-2.76-4-3a55.5 55.5 0 0 1-12-13c-.05-2.13-1.05-3.47-3-4-3.8-5.05-6.47-10.72-8-17 .33-2.73-.34-5.06-2-7-.24-5.19-.91-10.19-2-15v-85c61 .33 122 0 183-1-.12-.61-.46-.94-1-1v-20c1.15-2.45.81-4.79-1-7-.9-.71-1.24-1.71-1-3 .21-1.68-.45-2.68-2-3a18.4 18.4 0 0 1-4-6c-1.08-2.09-2.75-3.42-5-4q-2.115-3.06-6-3c-.67-.77-1.51-1.43-2.5-2-.4.23-.57.56-.5 1h-1c.03-1-.47-1.66-1.5-2q-2.52-1.665-4.5 0h-153v-56zm3 210c-31.34.17-62.67 0-94-.5-3.02-.85-6.02-1.68-9-2.5-2.12-1.9-4.45-3.57-7-5-1.33-2-3-3.67-5-5q-.735-3.48-3-6c-.09-2.29-.76-4.29-2-6v-23h120z"/><path style="opacity:.831" fill="#bbb" d="M576.5 1545.5c-3.27 1.66-6.603 1.99-10 1a28.9 28.9 0 0 1 10-1"/><path style="opacity:.855" fill="#bababa" d="M580.5 1545.5a39.8 39.8 0 0 1 11 1c-.597.64-1.43.97-2.5 1-3.027-.41-5.86-1.08-8.5-2"/><path style="opacity:.855" fill="silver" d="M792.5 1545.5c-.553 2.05-1.553 2.39-3 1 .891-.61 1.891-.94 3-1"/><path style="opacity:.698" fill="#b7b7b7" d="M1047.5 1545.5c-.12 1.09-.79 1.75-2 2-.92-.04-1.58-.38-2-1a6.93 6.93 0 0 1 4-1"/><path style="opacity:.792" fill="#b7b7b7" d="M1411.5 1545.5c1.11.06 2.11.39 3 1-1.45 1.39-2.45 1.05-3-1"/><path style="opacity:.631" fill="#cacaca" d="M563.5 1546.5q-4.237 2.52-9.5 3c-1.07-.03-1.903-.36-2.5-1 3.976-.8 7.976-1.46 12-2"/><path style="opacity:.831" fill="#b9b9b9" d="M1042.5 1546.5c-1.14 1.71-2.8 2.38-5 2 1.43-1.04 3.1-1.7 5-2"/><path style="opacity:.875" fill="#bbb" d="M603.5 1548.5q6.505.12 12 3-6.505-.12-12-3"/><path style="opacity:.51" fill="#c6c6c6" d="M1418.5 1547.5c2.99.4 5.65 1.4 8 3-3.24-.02-5.9-1.02-8-3"/><path style="opacity:.804" fill="#c2c2c2" d="M549.5 1548.5q-2.874 3.72-8 3 3.719-1.935 8-3"/><path style="opacity:.98" fill="#c6c6c6" d="M784.5 1547.5c-3.474 2.27-7.474 3.6-12 4 3.614-2.2 7.614-3.53 12-4"/><path style="opacity:1" fill="#c4c4c4" d="M1036.5 1548.5q-3.87 2.955-9 3 3.96-2.715 9-3"/><path style="opacity:.882" fill="#bcbcbc" d="M541.5 1551.5c-1.714 1.24-3.714 1.91-6 2 1.602-1.57 3.602-2.24 6-2"/><path style="opacity:.42" fill="#b0b0b0" d="M1027.5 1551.5c-1.28 1.43-2.95 2.1-5 2 1.28-1.43 2.95-2.1 5-2"/><path style="opacity:1" fill="#c4c4c4" d="M772.5 1551.5q-2.528 3.48-7 3 3.156-2.115 7-3"/><path style="opacity:.863" fill="#c2c2c2" d="M534.5 1553.5c-2.84 2.42-6.173 3.75-10 4 3.051-1.85 6.384-3.19 10-4"/><path style="opacity:.424" fill="#c6c6c6" d="M616.5 1551.5c4.705.92 9.039 2.58 13 5-4.936-.31-9.269-1.98-13-5"/><path style="opacity:.451" fill="#c5c5c5" d="M1022.5 1553.5c-1.84 2.09-4.17 3.42-7 4 1.84-2.09 4.17-3.42 7-4"/><path style="opacity:.812" fill="#b7b7b7" d="M765.5 1554.5c-.473 1.41-1.473 2.07-3 2 .473-1.41 1.473-2.07 3-2"/><path style="opacity:.835" fill="#b8b8b8" d="M1013.5 1558.5c-.47 1.41-1.47 2.07-3 2 .47-1.41 1.47-2.07 3-2"/><path style="opacity:.761" fill="#bcbcbc" d="M1010.5 1560.5c-1.08 2.09-2.75 3.42-5 4 1.08-2.09 2.75-3.42 5-4"/><path style="opacity:.408" fill="#aeaeae" d="M514.5 1562.5q-1.739 2.625-5 3 1.739-2.625 5-3"/><path style="opacity:.086" fill="#aeaeae" d="M1447.5 1562.5c2.25.58 3.92 1.91 5 4-2.25-.58-3.92-1.91-5-4"/><path style="opacity:1" fill="#bebebe" d="M646.5 1564.5c2.382.85 4.382 2.18 6 4-2.767-.37-4.767-1.7-6-4"/><path style="opacity:.941" fill="#bdbdbd" d="M509.5 1565.5c-.473 1.41-1.473 2.07-3 2 .473-1.41 1.473-2.07 3-2"/><path style="opacity:.918" fill="#bdbdbd" d="M750.5 1564.5q-2.609 4.11-7 6 2.609-4.11 7-6"/><path style="opacity:.98" fill="#c1c1c1" d="M1005.5 1564.5c-1.08 2.09-2.75 3.42-5 4 1.08-2.09 2.75-3.42 5-4"/><path style="opacity:.71" fill="#a6a6a6" d="M504.5 1568.5c-.473 1.41-1.473 2.07-3 2 .473-1.41 1.473-2.07 3-2"/><path style="opacity:.906" fill="#b1b1b1" d="M1454.5 1568.5c2.41 1.41 4.08 3.41 5 6-2.41-1.41-4.08-3.41-5-6"/><path style="opacity:.894" fill="#b8b8b8" d="M743.5 1570.5q-1.379 3.885-5 6 1.379-3.885 5-6"/><path style="opacity:.125" fill="#a5a5a5" d="M660.5 1574.5c1.527-.07 2.527.59 3 2-1.527.07-2.527-.59-3-2"/><path style="opacity:.761" fill="#b4b4b4" d="M996.5 1572.5c-.58 2.25-1.913 3.92-4 5 .58-2.25 1.913-3.92 4-5"/><path style="opacity:.98" fill="#b9b9b9" d="M1459.5 1574.5c1.76.76 2.76 2.1 3 4-1.76-.76-2.76-2.1-3-4"/><path style="opacity:1" fill="#b9b9b9" d="M738.5 1576.5c-.238 1.9-1.238 3.24-3 4 .238-1.9 1.238-3.24 3-4"/><path style="opacity:1" fill="#cbcbcb" d="M496.5 1574.5q-2.609 4.11-7 6 2.609-4.11 7-6"/><path style="opacity:.949" fill="#afafaf" d="M992.5 1577.5c-.238 1.9-1.238 3.24-3 4 .238-1.9 1.238-3.24 3-4"/><path style="opacity:.694" fill="#b3b3b3" d="M1462.5 1578.5c1.41.47 2.07 1.47 2 3-1.41-.47-2.07-1.47-2-3"/><path style="opacity:.765" fill="#acacac" d="M489.5 1580.5c-3.333 4-7 7.67-11 11 2.667-4.67 6.333-8.33 11-11"/><path style="opacity:.055" fill="#b6b6b6" d="M667.5 1580.5c4.667 2.67 8.333 6.33 11 11-4-3.33-7.667-7-11-11"/><path style="opacity:.671" fill="#adadad" d="M735.5 1580.5q.11 2.295-2 3-.11-2.295 2-3"/><path style="opacity:.529" fill="#a8a8a8" d="M1464.5 1581.5c1.41.47 2.07 1.47 2 3-1.41-.47-2.07-1.47-2-3"/><path style="opacity:.443" fill="#a1a1a1" d="M733.5 1583.5q.11 2.295-2 3-.11-2.295 2-3"/><path style="opacity:.616" fill="#b4b4b4" d="M988.5 1583.5q.11 2.295-2 3-.11-2.295 2-3"/><path style="opacity:.243" fill="#939393" d="M1467.5 1586.5c1.41.47 2.07 1.47 2 3-1.41-.47-2.07-1.47-2-3"/><path style="opacity:.208" fill="#8f8f8f" d="M985.5 1588.5q.11 2.295-2 3-.11-2.295 2-3"/><path style="opacity:.918" fill="#bababa" d="M476.5 1593.5c-.238 1.9-1.238 3.24-3 4 .238-1.9 1.238-3.24 3-4"/><path style="opacity:.796" fill="#b9b9b9" d="M680.5 1593.5c1.762.76 2.762 2.1 3 4-1.762-.76-2.762-2.1-3-4"/><path style="opacity:1" fill="#bcbcbc" d="M1470.5 1592.5c1.43 1.28 2.1 2.95 2 5-1.71-1.14-2.38-2.8-2-5"/><path style="opacity:.639" fill="#b4b4b4" d="M584.5 1597.5c.417-.62 1.084-.96 2-1 1.213.25 1.88.91 2 2-1.333-.33-2.667-.67-4-1"/><path style="opacity:.027" fill="#b1b1b1" d="M575.5 1597.5c-2.596.77-5.263 1.1-8 1 2.54-1.91 5.207-2.25 8-1"/><path style="opacity:.206" fill="#a4a4a4" d="M982.5 1594.5q-.143 3.435-2 6-.361-3.6 2-6"/><path style="opacity:.62" fill="#bdbdbd" d="M565.5 1598.5c-1.714 1.24-3.714 1.91-6 2 1.602-1.57 3.602-2.24 6-2"/><path style="opacity:.878" fill="#b6b6b6" d="M683.5 1597.5c2.087 1.08 3.42 2.75 4 5-2.087-1.08-3.42-2.75-4-5"/><path style="opacity:.722" fill="#d1d1d1" d="M1143.5 1545.5h79v56h-151c49.5-1 99.16-1.33 149-1v-54c-25.84.33-51.51 0-77-1"/><path style="opacity:.051" fill="#b3b3b3" d="M727.5 1595.5q-.285 5.04-3 9 .042-5.13 3-9"/><path style="opacity:.69" fill="#b7b7b7" d="M814.5 1601.5c-2.461 1.03-5.127 1.7-8 2 2.28-1.72 4.947-2.39 8-2"/><path style="opacity:.525" fill="#c7c7c7" d="M1391.5 1603.5c-2.2-.38-4.2-1.04-6-2q1.98-1.665 4.5 0c1.03.34 1.53 1 1.5 2"/><path style="opacity:.149" fill="#a9a9a9" d="M556.5 1601.5c-1.014 1.17-2.347 1.84-4 2 .787-1.6 2.12-2.27 4-2"/><path style="opacity:.525" fill="#c2c2c2" d="M603.5 1601.5q3.884-.06 6 3-3.478-.735-6-3"/><path style="opacity:.494" fill="#b0b0b0" d="M1472.5 1598.5c2.18 2.88 3.18 6.21 3 10-1.78-3-2.78-6.34-3-10"/><path style="opacity:.8" fill="#b4b4b4" d="M470.5 1601.5c-.238 1.9-1.238 3.24-3 4 .238-1.9 1.238-3.24 3-4"/><path style="opacity:.012" fill="#a5a5a5" d="M1395.5 1604.5c-1.29.24-2.29-.1-3-1-.07-.44.1-.77.5-1 .99.57 1.83 1.23 2.5 2"/><path style="opacity:.498" fill="#a2a2a2" d="M687.5 1602.5q2.11.705 2 3-2.11-.705-2-3"/><path style="opacity:.576" fill="#bdbdbd" d="M1061.5 1603.5a33 33 0 0 1-7 3c1.68-2.33 4.01-3.33 7-3"/><path style="opacity:.435" fill="#b4b4b4" d="M1395.5 1604.5q3.885-.06 6 3-3.48-.735-6-3"/><path style="opacity:.549" fill="#b4b4b4" d="M611.5 1605.5c1.527-.07 2.527.59 3 2-1.527.07-2.527-.59-3-2"/><path style="opacity:.502" fill="#a7a7a7" d="M467.5 1605.5q.11 2.295-2 3-.11-2.295 2-3"/><path style="opacity:.965" fill="#bbb" d="M1401.5 1607.5c2.25.58 3.92 1.91 5 4-2.25-.58-3.92-1.91-5-4"/><path style="opacity:.008" fill="#959595" d="M545.5 1607.5c-.473 1.41-1.473 2.07-3 2 .473-1.41 1.473-2.07 3-2"/><path style="opacity:.316" fill="#afafaf" d="M614.5 1607.5c1.527-.07 2.527.59 3 2-1.527.07-2.527-.59-3-2"/><path style="opacity:.012" fill="#9a9a9a" d="M798.5 1607.5c-.473 1.41-1.473 2.07-3 2 .473-1.41 1.473-2.07 3-2"/><path style="opacity:.357" fill="#989898" d="M691.5 1608.5q2.11.705 2 3-2.11-.705-2-3"/><path style="opacity:.027" fill="#a1a1a1" d="M541.5 1610.5c-.333 1-1 1.67-2 2 0-1.33.667-2 2-2"/><path style="opacity:.741" fill="#aaa" d="M617.5 1609.5c2.589.92 4.589 2.59 6 5-2.589-.92-4.589-2.59-6-5"/><path style="opacity:.549" fill="#a9a9a9" d="M464.5 1610.5q.11 2.295-2 3-.11-2.295 2-3"/><path style="opacity:.235" fill="#ababab" d="M724.5 1605.5q.12 4.92-2 9-.12-4.92 2-9"/><path style="opacity:.672" fill="#b8b8b8" d="M979.5 1604.5c-.951 34.32-1.285 68.65-1 103a1637 1637 0 0 1-.5-99c.21-1.56.71-2.89 1.5-4"/><path style="opacity:1" fill="#bfbfbf" d="M1410.5 1617.5c1.55.32 2.21 1.32 2 3-.9-.79-1.57-1.79-2-3"/><path style="opacity:.004" fill="#9a9a9a" d="M533.5 1618.5c-.333 1-1 1.67-2 2 0-1.33.667-2 2-2"/><path style="opacity:.278" fill="#acacac" d="M460.5 1617.5c-.16 1.65-.826 2.99-2 4-.271-1.88.396-3.21 2-4"/><path style="opacity:.008" fill="#9f9f9f" d="M788.5 1617.5c.271 1.88-.396 3.21-2 4 .16-1.65.826-2.99 2-4"/><path style="opacity:1" fill="#b5b5b5" d="M628.5 1620.5c1.946.53 2.946 1.87 3 4-1.474-.94-2.474-2.27-3-4"/><path style="opacity:.255" fill="#989898" d="M697.5 1619.5q2.11.705 2 3-2.11-.705-2-3"/><path style="opacity:1" fill="#b5b5b5" d="M632.5 1626.5q2.322.48 2 3-1.352-1.185-2-3"/><path style="opacity:.227" fill="#9f9f9f" d="M456.5 1625.5c-.16 1.65-.826 2.99-2 4-.271-1.88.396-3.21 2-4"/><path style="opacity:.694" fill="#acacac" d="M1413.5 1623.5c1.81 2.21 2.15 4.55 1 7-.72-2.26-1.05-4.6-1-7"/><path style="opacity:.791" fill="#acacac" d="M786.5 1621.5q-.855 14.325-2 28.5 91.752.255 183 1.5h-184q-.25-12.015.5-24 .85-3.33 2.5-6"/><path style="opacity:.651" fill="#c6c6c6" d="M1041.5 1621.5a126.2 126.2 0 0 0-2 29v1c-1.16-8.16-1.32-16.49-.5-25 .37-1.99 1.21-3.66 2.5-5"/><path style="opacity:.294" fill="#a8a8a8" d="M454.5 1630.5c.098 2.05-.569 3.72-2 5-.098-2.05.569-3.72 2-5"/><path style="opacity:.392" fill="#959595" d="M524.5 1631.5c-.16 1.65-.826 2.99-2 4-.271-1.88.396-3.21 2-4"/><path style="opacity:.988" fill="#b3b3b3" d="M703.5 1632.5c1.431 1.28 2.098 2.95 2 5-1.713-1.14-2.38-2.8-2-5"/><path style="opacity:.459" fill="#a6a6a6" d="M521.5 1637.5c.09 2.65-.576 4.99-2 7-.09-2.65.576-4.99 2-7"/><path style="opacity:.576" fill="#ababab" d="M638.5 1638.5c1.663 1.94 2.329 4.27 2 7-1.112-2.1-1.779-4.43-2-7"/><path style="opacity:.359" fill="#adadad" d="M452.5 1635.5q-.541 6.63-4 12 .64-6.6 4-12"/><path style="opacity:.812" fill="#b4b4b4" d="M705.5 1638.5c1.777 3 2.777 6.34 3 10-2.105-2.91-3.105-6.24-3-10"/><path style="opacity:1" fill="#eaeaea" d="M1039.5 1651.5h182c.33 29.84 0 59.5-1 89v-88c-60.5.33-120.84 0-181-1"/><path style="opacity:.999" fill="#d4d4d4" d="M1414.5 1650.5c.54.06.88.39 1 1-61 1-122 1.33-183 1 60.32-2 120.99-2.66 182-2"/><path style="opacity:.886" fill="#b6b6b6" d="M448.5 1649.5c.178 3.62-.489 6.96-2 10-.438.07-.772-.1-1-.5.633-3.37 1.633-6.53 3-9.5"/><path style="opacity:.153" fill="#b6b6b6" d="M1039.5 1651.5v-1h183c.17 31.34 0 62.67-.5 94-.31 3.59-1.14 6.92-2.5 10 .33-4.67.67-9.33 1-14 1-29.5 1.33-59.16 1-89z"/><path style="opacity:.333" fill="#bbb" d="M708.5 1649.5c2.133 5.34 3.133 11.01 3 17-1.875-5.39-2.875-11.06-3-17"/><path style="opacity:.976" fill="#c5c5c5" d="M519.5 1645.5c-.58 4.31-.914 8.64-1 13-1.601 1.14-2.267.48-2-2 .383-3.96 1.383-7.63 3-11"/><path style="opacity:.62" fill="#b4b4b4" d="M711.5 1670.5c.985 4.13 1.318 8.47 1 13h-194v3c-.934-1.07-1.268-2.4-1-4h194z"/><path style="opacity:.024" fill="#b3b3b3" d="M518.5 1688.5q1.495 5.97 3 12-2.992-4.71-4-10.5.105-1.14 1-1.5"/><path style="opacity:.251" fill="#acacac" d="M446.5 1699.5c1.582 3.38 2.249 7.04 2 11a68 68 0 0 1-3-10.5c.228-.4.562-.57 1-.5"/><path style="opacity:.322" fill="#9f9f9f" d="M521.5 1700.5q2.11.705 2 3-2.11-.705-2-3"/><path style="opacity:.42" fill="#a1a1a1" d="M524.5 1705.5q2.11.705 2 3-2.11-.705-2-3"/><path style="opacity:.494" fill="#afafaf" d="M708.5 1709.5c-.342-.84-1.008-1.17-2-1a7.5 7.5 0 0 1 2-3c1.282 1.46 1.282 2.79 0 4"/><path style="opacity:.957" fill="#c5c5c5" d="M903.5 1735.5c.887-9.3 1.221-18.63 1-28 .06-.54.393-.88 1-1a96.5 96.5 0 0 1 .5 24c-.374 1.99-1.207 3.66-2.5 5"/><path style="opacity:.271" fill="#a2a2a2" d="M1159.5 1707.5c1.16 8.16 1.32 16.49.5 25-.28.92-.78 1.58-1.5 2 .88-8.97 1.22-17.97 1-27"/><path style="opacity:.82" fill="#aaa" d="M526.5 1708.5q2.11.705 2 3-2.11-.705-2-3"/><path style="opacity:.627" fill="#a8a8a8" d="M448.5 1711.5c2.18 2.88 3.18 6.21 3 10-1.601-3.05-2.601-6.38-3-10"/><path style="opacity:.973" fill="#c8c8c8" d="M530.5 1713.5c2 1.33 3.667 3 5 5-2.667-.67-4.333-2.33-5-5"/><path style="opacity:.835" fill="#bdbdbd" d="M705.5 1710.5c-2.333 4.33-5.667 7.67-10 10 3-3.67 6.333-7 10-10"/><path style="opacity:.569" fill="#b0b0b0" d="M708.5 1710.5c-.223 3.66-1.223 7-3 10 .223-3.66 1.223-7 3-10"/><path style="opacity:.851" fill="#c5c5c5" d="M695.5 1720.5c-1.039 2.03-2.705 3.36-5 4 1.079-2.04 2.746-3.38 5-4"/><path style="opacity:.035" fill="#ababab" d="M541.5 1723.5c1.527-.07 2.527.59 3 2-1.527.07-2.527-.59-3-2"/><path style="opacity:.047" fill="#9a9a9a" d="M705.5 1720.5q.361 3.6-2 6 .143-3.435 2-6"/><path style="opacity:.4" fill="#a3a3a3" d="M452.5 1723.5q1.857 2.565 2 6-2.361-2.4-2-6"/><path style="opacity:.239" fill="#afafaf" d="M544.5 1725.5c1.527-.07 2.527.59 3 2-1.527.07-2.527-.59-3-2"/><path style="opacity:.804" fill="#bebebe" d="M685.5 1727.5c-.473 1.41-1.473 2.07-3 2 .473-1.41 1.473-2.07 3-2"/><path style="opacity:.012" fill="#b1b1b1" d="M547.5 1727.5c2.831.58 5.164 1.91 7 4-2.831-.58-5.164-1.91-7-4"/><path style="opacity:.267" fill="#a5a5a5" d="M455.5 1731.5c1.174 1.01 1.84 2.35 2 4-1.604-.79-2.271-2.12-2-4"/><path style="opacity:.298" fill="#b0b0b0" d="M554.5 1731.5q4.111.315 7 3-4.111-.315-7-3"/><path style="opacity:.282" fill="#959595" d="M702.5 1729.5c.098 2.05-.569 3.72-2 5-.098-2.05.569-3.72 2-5"/><path style="opacity:.737" fill="#aeaeae" d="M1294.5 1730.5c1.24 1.71 1.91 3.71 2 6-1.57-1.6-2.24-3.6-2-6"/><path style="opacity:.871" fill="#b7b7b7" d="M561.5 1734.5q4.111.315 7 3-4.111-.315-7-3"/><path style="opacity:.525" fill="#b0b0b0" d="M669.5 1735.5c-1.28 1.43-2.947 2.1-5 2 1.28-1.43 2.947-2.1 5-2"/><path style="opacity:.698" fill="#b6b6b6" d="M1549.5 1724.5c.7 4.3 1.03 8.63 1 13-1.91-4.25-2.24-8.59-1-13"/><path style="opacity:.475" fill="#b1b1b1" d="M569.5 1737.5c2.286.09 4.286.76 6 2-2.398.24-4.398-.43-6-2"/><path style="opacity:.58" fill="#b7b7b7" d="M659.5 1738.5c-1.038 2.02-2.372 2.35-4 1 1.333-.33 2.667-.67 4-1"/><path style="opacity:.502" fill="silver" d="M654.5 1740.5q-6.43 3.345-14 3 6.632-2.4 14-3"/><path style="opacity:.573" fill="#b2b2b2" d="M1232.5 1737.5c1.09 4.81 1.76 9.81 2 15-1.64-4.73-2.31-9.73-2-15"/><path style="opacity:.769" fill="#b1b1b1" d="M900.5 1741.5c-.238 1.9-1.238 3.24-3 4 .238-1.9 1.238-3.24 3-4"/><path style="opacity:1" fill="#bfbfbf" d="M1299.5 1742.5c2 1.33 3.67 3 5 5-2.67-.67-4.33-2.33-5-5"/><path style="opacity:.173" fill="#b4b4b4" d="M1550.5 1738.5c1.27 2.41 1.93 5.07 2 8-1.54-2.34-2.21-5-2-8"/><path style="opacity:.855" fill="#b7b7b7" d="M599.5 1743.5c2.065.02 4.065.35 6 1-.597.64-1.43.97-2.5 1-1.699.11-2.866-.55-3.5-2"/><path style="opacity:.873" fill="#bbb" d="M633.5 1743.5c-1.379 2.1-3.045 2.43-5 1 1.617-.54 3.284-.87 5-1"/><path style="opacity:.031" fill="#9c9c9c" d="M461.5 1744.5q2.11.705 2 3-2.11-.705-2-3"/><path style="opacity:.714" fill="#b5b5b5" d="M1155.5 1741.5c-1.33 3.33-3.67 5.67-7 7 2-2.67 4.33-5 7-7"/><path style="opacity:.827" fill="#bababa" d="M895.5 1747.5q-1.144 2.64-4 3 1.144-2.64 4-3"/><path style="opacity:.737" fill="#b3b3b3" d="M1148.5 1748.5c-.53 1.95-1.87 2.95-4 3 .94-1.47 2.27-2.47 4-3"/><path style="opacity:.522" fill="#b9b9b9" d="M967.5 1742.5c-.382 4.59-1.382 8.93-3 13 .059-3.19.393-6.36 1-9.5.108-1.68.775-2.85 2-3.5"/><path style="opacity:.863" fill="#afafaf" d="M1552.5 1746.5q2.355 4.08 3 9-3.555-3.69-3-9"/><path style="opacity:.467" fill="#afafaf" d="M1488.5 1748.5c1.57 3.41 2.57 7.07 3 11-1.98-3.3-2.98-6.97-3-11"/><path style="opacity:.918" fill="#c1c1c1" d="M1142.5 1752.5c-2.26 2.29-5.1 3.63-8.5 4-.76-.07-1.26-.4-1.5-1 3.4-.75 6.73-1.75 10-3"/><path style="opacity:.8" fill="#bbb" d="M1234.5 1752.5c1.66 1.94 2.33 4.27 2 7-1.11-2.1-1.78-4.43-2-7"/><path style="opacity:.777" fill="#b2b2b2" d="M889.5 1751.5c-3.638 3.18-7.972 5.01-13 5.5-51.332.5-102.666.67-154 .5 51.99-1.83 104.324-2.66 157-2.5 3.451-.9 6.784-2.06 10-3.5"/><path style="opacity:.78" fill="#b2b2b2" d="M1131.5 1755.5c-50.66 2-101.66 2.66-153 2v-1c50.83-1 101.83-1.33 153-1m180-3c2.98.82 5.98 1.65 9 2.5 31.33.5 62.66.67 94 .5.54.06.88.39 1 1a1442 1442 0 0 1-93 .5c-4.08-.76-7.75-2.26-11-4.5"/><path style="opacity:.612" fill="#a8a8a8" d="M1219.5 1754.5c.09 2.65-.58 4.99-2 7-.09-2.65.58-4.99 2-7"/><path style="opacity:1" fill="#bdbdbd" d="M1555.5 1755.5c1.17 1.01 1.84 2.35 2 4-1.68-.68-2.34-2.02-2-4"/><path style="opacity:.439" fill="#ababab" d="M964.5 1756.5c.098 2.05-.569 3.72-2 5-.098-2.05.569-3.72 2-5"/><path style="opacity:.408" fill="#9b9b9b" d="M1491.5 1759.5c1.24 1.71 1.91 3.71 2 6-1.57-1.6-2.24-3.6-2-6"/><path style="opacity:.824" fill="#a4a4a4" d="M477.5 1767.5c1.333 0 2 .67 2 2-1-.33-1.667-1-2-2"/><path style="opacity:.557" fill="#b5b5b5" d="M1561.5 1768.5c1.41.47 2.07 1.47 2 3-1.41-.47-2.07-1.47-2-3"/><path style="opacity:1" fill="silver" d="M1497.5 1773.5c1.55.32 2.21 1.32 2 3-.9-.79-1.57-1.79-2-3"/><path style="opacity:.533" fill="#a5a5a5" d="M1563.5 1771.5c1.41.47 2.07 1.47 2 3-1.41-.47-2.07-1.47-2-3"/><path style="opacity:1" fill="#bbb" d="M1244.5 1776.5c1.95.53 2.95 1.87 3 4-1.47-.94-2.47-2.27-3-4"/><path style="opacity:.639" fill="#aeaeae" d="M1565.5 1774.5c1.41.47 2.07 1.47 2 3-1.41-.47-2.07-1.47-2-3"/><path style="opacity:.855" fill="#a9a9a9" d="M487.5 1777.5c2.333.33 3.667 1.67 4 4-1.667-1-3-2.33-4-4"/><path style="opacity:.984" fill="#bcbcbc" d="M1567.5 1777.5c1.76.76 2.76 2.1 3 4-1.76-.76-2.76-2.1-3-4"/><path style="opacity:.4" fill="#b7b7b7" d="M668.5 1778.5q-1.143 2.64-4 3 1.143-2.64 4-3"/><path style="opacity:.957" fill="#b8b8b8" d="M493.5 1782.5q2.856.36 4 3-2.856-.36-4-3"/><path style="opacity:.09" fill="#a9a9a9" d="M662.5 1783.5c-.473 1.41-1.473 2.07-3 2 .473-1.41 1.473-2.07 3-2"/><path style="opacity:.996" fill="silver" d="M497.5 1785.5q2.856.36 4 3-2.856-.36-4-3"/><path style="opacity:.71" fill="#a0a0a0" d="M1508.5 1788.5c2.25.58 3.92 1.91 5 4-2.25-.58-3.92-1.91-5-4"/><path style="opacity:.737" fill="#bababa" d="M501.5 1788.5c1.527-.07 2.527.59 3 2-1.527.07-2.527-.59-3-2"/><path style="opacity:.004" fill="#aaa" d="M651.5 1791.5q-1.739 2.625-5 3 1.739-2.625 5-3"/><path style="opacity:.569" fill="#bababa" d="M507.5 1792.5c1.527-.07 2.527.59 3 2-1.527.07-2.527-.59-3-2"/><path style="opacity:.059" fill="#a2a2a2" d="M940.5 1792.5c-.473 1.41-1.473 2.07-3 2 .473-1.41 1.473-2.07 3-2"/><path style="opacity:.918" fill="#b5b5b5" d="M1259.5 1793.5c1.9.24 3.24 1.24 4 3-1.9-.24-3.24-1.24-4-3"/><path style="opacity:.361" fill="#a6a6a6" d="M510.5 1794.5c1.527-.07 2.527.59 3 2-1.527.07-2.527-.59-3-2"/><path style="opacity:.008" fill="#acacac" d="M646.5 1794.5c-.473 1.41-1.473 2.07-3 2 .473-1.41 1.473-2.07 3-2"/><path style="opacity:.78" fill="#a5a5a5" d="M1516.5 1795.5c1.53-.07 2.53.59 3 2-1.53.07-2.53-.59-3-2"/><path style="opacity:.976" fill="#bababa" d="M1263.5 1796.5c1.9.24 3.24 1.24 4 3-1.9-.24-3.24-1.24-4-3"/><path style="opacity:.447" fill="#bababa" d="M642.5 1796.5q-1.739 2.625-5 3 1.739-2.625 5-3"/><path style="opacity:.898" fill="#bcbcbc" d="M1519.5 1797.5c1.53-.07 2.53.59 3 2-1.53.07-2.53-.59-3-2"/><path style="opacity:.047" fill="#aeaeae" d="M933.5 1797.5c-.473 1.41-1.473 2.07-3 2 .473-1.41 1.473-2.07 3-2"/><path style="opacity:.012" fill="#a4a4a4" d="M1188.5 1797.5c-.47 1.41-1.47 2.07-3 2 .47-1.41 1.47-2.07 3-2"/><path style="opacity:.012" fill="#b7b7b7" d="M1588.5 1797.5c1.21.43 2.21 1.1 3 2-1.68.21-2.68-.45-3-2"/><path style="opacity:.271" fill="#aeaeae" d="M637.5 1799.5q-2.522 2.265-6 3 2.116-3.06 6-3"/><path style="opacity:.78" fill="#b0b0b0" d="M1267.5 1799.5c2.17.25 3.84 1.25 5 3-2.17-.25-3.84-1.25-5-3"/><path style="opacity:.549" fill="#b2b2b2" d="M1522.5 1799.5c1.53-.07 2.53.59 3 2-1.53.07-2.53-.59-3-2"/><path style="opacity:.98" fill="#b6b6b6" d="M1591.5 1799.5c2.38.85 4.38 2.18 6 4-2.77-.37-4.77-1.7-6-4"/><path style="opacity:.004" fill="#a0a0a0" d="M1183.5 1800.5c-.47 1.41-1.47 2.07-3 2 .47-1.41 1.47-2.07 3-2"/><path style="opacity:.525" fill="silver" d="M519.5 1799.5c4.389.9 8.389 2.57 12 5-4.389-.9-8.389-2.57-12-5"/><path style="opacity:.408" fill="#b2b2b2" d="M1180.5 1802.5c-1.28 1.43-2.95 2.1-5 2 1.28-1.43 2.95-2.1 5-2"/><path style="opacity:.816" fill="#b9b9b9" d="M1527.5 1802.5c2.17.25 3.84 1.25 5 3-2.17-.25-3.84-1.25-5-3"/><path style="opacity:.129" fill="#a7a7a7" d="M630.5 1802.5c-1.014 1.17-2.347 1.84-4 2 .787-1.6 2.12-2.27 4-2"/><path style="opacity:.004" fill="#bababa" d="M930.5 1799.5c-4.973 3.98-10.64 6.65-17 8 5.477-2.9 11.143-5.57 17-8"/><path style="opacity:.522" fill="#bbb" d="M531.5 1804.5q4.34-.705 6 3a311 311 0 0 1-6-3"/><path style="opacity:.498" fill="#c4c4c4" d="M625.5 1804.5q-3.585 2.28-8 3 3.276-3.12 8-3"/><path style="opacity:.431" fill="#bdbdbd" d="M1175.5 1804.5c-1.93 1.79-4.26 2.79-7 3 1.93-1.79 4.26-2.79 7-3"/><path style="opacity:.357" fill="#bbb" d="M1278.5 1805.5c2.05-.1 3.72.57 5 2-2.05.1-3.72-.57-5-2"/><path style="opacity:.984" fill="#c5c5c5" d="M1535.5 1806.5c3.86-.17 6.86 1.16 9 4a55.4 55.4 0 0 1-9-4"/><path style="opacity:.357" fill="#b5b5b5" d="M1603.5 1806.5c2.74.21 5.07 1.21 7 3-2.74-.21-5.07-1.21-7-3"/><path style="opacity:.682" fill="#bbb" d="M540.5 1807.5q5.126-.72 8 3-4.281-1.065-8-3"/><path style="opacity:.047" fill="#b8b8b8" d="M1167.5 1807.5c-2.88 2.18-6.21 3.18-10 3 3-1.78 6.34-2.78 10-3"/><path style="opacity:.373" fill="#c8c8c8" d="M1283.5 1807.5c3.08-.32 5.41.68 7 3-2.49-.82-4.82-1.82-7-3"/><path style="opacity:.878" fill="#c5c5c5" d="M549.5 1810.5c.597-.64 1.43-.97 2.5-1l7.5 1.5q.834.57 1 1.5c-3.667-.67-7.333-1.33-11-2"/><path style="opacity:.137" fill="#cdcdcd" d="M910.5 1808.5q-5.589 2.445-12 3c.652-1.23 1.819-1.89 3.5-2a62.5 62.5 0 0 1 8.5-1"/><path style="opacity:.867" fill="#c5c5c5" d="M1545.5 1810.5c.6-.64 1.43-.97 2.5-1 1.7-.11 2.87.55 3.5 2-2-.33-4-.67-6-1"/><path style="opacity:.824" fill="#bfbfbf" d="M603.5 1811.5c-2.667.33-5.333.67-8 1 .834-1.25 2.167-1.91 4-2 1.545.01 2.878.34 4 1"/><path style="opacity:.984" fill="#c5c5c5" d="M1156.5 1810.5c-3.09 1.28-6.42 1.95-10 2 2.84-1.9 6.17-2.57 10-2"/><path style="opacity:1" fill="#d3d3d3" d="M1291.5 1810.5c2.65-.94 5.49-.94 8.5 0 1.68.11 2.85.77 3.5 2-4.02-.54-8.02-1.2-12-2"/><path style="opacity:.855" fill="#b6b6b6" d="M562.5 1812.5c2.18-1.29 4.18-.96 6 1-2.121.17-4.121-.16-6-1"/><path style="opacity:.628" fill="#b6b6b6" d="M978.5 1756.5v55c55.17-.33 110.17 0 165 1h-166c-.33-18.84.003-37.51 1-56"/><path style="opacity:.628" fill="#afafaf" d="M1476.5 1616.5c1 65.26 1.33 130.6 1 196-56.97.01-113.64.01-170 0 55.83-1 111.83-1.33 168-1-.33-65.17 0-130.17 1-195"/><path style="opacity:.628" fill="#b6b6b6" d="M1611.5 1809.5c2.82.04 5.15 1.04 7 3-.5.33-1 .67-1.5 1-19.13-.98-38.3-1.31-57.5-1q26.745-1.245 54-1.5c-.92-.28-1.58-.78-2-1.5"/><path style="opacity:.145" fill="#cfcfcf" d="M594.5 1812.5c-2.217.87-4.55 1.2-7 1 .652-1.23 1.819-1.89 3.5-2 1.385.01 2.551.35 3.5 1"/></svg>