<svg xmlns="http://www.w3.org/2000/svg" viewBox="0 120 580 200"><g data-name="Layer 1"><path d="M341.36 239.5c0-19.11-15.49-34.61-34.61-34.61s-34.61 15.49-34.61 34.61 15.49 34.61 34.61 34.61c16.79 0 30.8-11.97 33.94-27.84-3.75 6.07-13.1 10.37-24.04 10.37-14.24 0-25.8-7.28-25.8-16.28h50.48c.02-.28.02-.58.02-.86Zm-50.5-5.31c0-8.99 7.28-16.28 16.28-16.28s16.26 7.28 16.26 16.28zm-64.77-37.36h18.71v77.15h-18.71zm-24.15 0v-18.71h67.15v18.71zm158.23 30.37v4.96h47.42v22.43c0 10.67-9.58 19.31-21.42 19.31h-41.81v-14.3h38.34c5.02 0 9.08-3.67 9.08-8.19v-4.94h-47.42v-22.49c0-10.65 9.58-19.31 21.42-19.31h20.39c.45 0 .88.02 1.32.05h20.1v14.32h-38.34c-5.02 0-9.08 3.65-9.08 8.17Zm66.24 0v4.96h47.42v22.43c0 10.67-9.58 19.31-21.42 19.31H410.6v-14.3h38.34c5.02 0 9.08-3.67 9.08-8.19v-4.94H410.6v-22.49c0-10.65 9.58-19.31 21.42-19.31h20.39c.45 0 .88.02 1.32.05h20.1v14.32h-38.34c-5.02 0-9.08 3.65-9.08 8.17Zm110.24-13.69c-.1-.14-.19-.29-.31-.44-3.63-5.09-9.58-8.41-16.33-8.41h-43.16v14.36h38.35c5.01 0 9.08 3.64 9.08 8.16v4.97h-47.42v21.66c0 4.16 1.26 8.01 3.43 11.22.11.16.23.34.37.51 3.63 5.05 9.57 8.34 16.27 8.34h43.16v-49.17c0-4.15-1.26-8.01-3.43-11.21Zm-12.38 46.07h-22.54c-5.01 0-9.08-3.66-9.08-8.19v-4.94h31.62zm34.63-9.32c0 .15 0 .31.01.46 0 .64.04 1.28.1 1.91.81 8.45 5.84 15.63 12.94 19.34 1.56.82 3.21 1.47 4.94 1.92h-13.73c-1.46 0-2.89-.15-4.26-.46-4.93-1.05-9.17-3.93-12.01-7.88-.14-.16-.26-.34-.37-.51a19.94 19.94 0 0 1-3.43-11.22v-75.61h15.81v26.48h23.71v14.29H558.9v31.26Z"/><path d="M167.54 226.47c0 35.23-21.75 65.38-52.56 77.75v-71.04l-33.29 31.64v45.38C36.39 309.09 0 272.03 0 226.47s37.51-83.77 83.77-83.77c13.48 0 26.21 3.18 37.49 8.85L48.39 220.6v33.3l33.29 10.93v-33.3l64.42-61.03c13.33 14.84 21.44 34.46 21.44 55.97" style="fill:#ef3b2b"/></g></svg>