<svg version="1.1" id="Layer_1" xmlns="http://www.w3.org/2000/svg" xmlns:xlink="http://www.w3.org/1999/xlink" x="0px" y="0px"
	 width="100%" viewBox="0 0 1930 516" enable-background="new 0 0 1930 516" xml:space="preserve">
<path fill="none" opacity="1.000000" stroke="none" 
	d="
M1271.000000,517.000000 
	C847.333313,517.000000 424.166656,517.000000 1.000000,517.000000 
	C1.000000,345.000000 1.000000,173.000000 1.000000,1.000000 
	C644.333313,1.000000 1287.666626,1.000000 1931.000000,1.000000 
	C1931.000000,173.000000 1931.000000,345.000000 1931.000000,517.000000 
	C1711.166626,517.000000 1491.333374,517.000000 1271.000000,517.000000 
M357.287018,474.746643 
	C375.636871,465.412750 392.536713,454.067535 407.416260,439.704651 
	C428.812500,419.051361 444.558228,394.812439 455.120178,367.055023 
	C456.558197,363.275848 458.904541,359.499268 461.767456,356.669586 
	C470.372284,348.164703 480.444183,340.959320 488.093811,331.716003 
	C499.689667,317.704315 502.736755,300.885651 497.020569,283.458221 
	C491.868896,267.751953 482.147827,255.067474 468.445892,245.459473 
	C464.354340,242.590424 460.423889,239.476715 458.817474,233.912979 
	C456.997162,227.608139 454.378448,221.349594 451.010681,215.727570 
	C447.646088,210.110718 447.614044,204.122513 448.469421,198.553146 
	C449.836487,189.651703 450.411011,180.874237 449.627197,171.956741 
	C447.312225,145.619003 430.168091,123.700790 402.889191,119.944382 
	C392.110291,118.460091 380.967621,119.750534 370.000366,119.436172 
	C365.486359,119.306786 360.478119,119.357307 356.583282,117.481232 
	C332.908020,106.077316 307.924561,99.074013 281.913116,97.326767 
	C266.886078,96.317375 251.558563,98.337006 236.473541,99.978943 
	C214.787872,102.339348 194.378998,109.465950 175.271408,119.814911 
	C154.685516,130.964539 135.608398,144.441010 120.276794,162.319580 
	C112.205009,171.732269 104.846672,181.938324 98.458031,192.562958 
	C91.760689,203.700974 86.678558,215.804092 80.737862,227.407272 
	C79.122604,230.562134 77.620461,234.370224 74.931168,236.279343 
	C61.524998,245.796295 49.813866,256.589325 42.506542,271.720398 
	C36.617294,283.915100 35.742783,296.220581 39.933224,308.978119 
	C45.101517,324.712646 55.046806,336.978699 68.130386,346.734009 
	C73.502968,350.739899 77.764565,355.308044 80.091705,361.626862 
	C82.318871,367.674194 85.020737,373.578644 86.782448,379.754547 
	C88.026581,384.116089 89.166466,389.018585 88.419952,393.346100 
	C85.555344,409.952209 85.782562,426.301453 93.052338,441.593994 
	C96.436478,448.712830 101.301987,456.061890 107.445129,460.755524 
	C124.318390,473.647369 144.085602,476.373779 164.791168,473.131958 
	C169.790771,472.349182 174.375504,472.345917 179.187210,474.968048 
	C185.694733,478.514252 192.583740,481.632751 199.652939,483.826813 
	C224.514954,491.543365 249.699799,496.923187 276.101501,495.732758 
	C304.494995,494.452515 331.197968,487.496063 357.287018,474.746643 
M984.720642,288.950623 
	C984.720642,271.066467 984.720642,253.182297 984.720642,234.762360 
	C960.098999,234.762360 936.570618,234.762360 912.633118,234.762360 
	C912.633118,223.899628 912.697205,213.268311 912.609192,202.638245 
	C912.555786,196.184341 912.450073,196.120560 918.932922,196.107407 
	C948.413879,196.047638 977.895264,195.948883 1007.375427,196.082794 
	C1011.500671,196.101532 1012.920105,194.946655 1012.864868,190.778900 
	C1012.677368,176.630997 1012.798035,162.479034 1012.800720,148.328613 
	C1012.801331,145.051407 1012.800842,141.774185 1012.800842,138.452118 
	C959.409241,138.452118 906.866150,138.452118 853.817749,138.452118 
	C853.817749,144.081665 853.812378,149.061371 853.818604,154.041077 
	C853.914734,230.850052 854.044250,307.659027 854.025940,384.467957 
	C854.024902,388.819214 855.240662,390.082428 859.655457,390.058411 
	C908.140015,389.794434 956.625793,389.749298 1005.111145,389.616852 
	C1007.556335,389.610199 1010.000854,389.348236 1012.360901,389.210114 
	C1012.360901,369.938934 1012.360901,351.157257 1012.360901,331.762024 
	C978.860352,331.762024 945.816223,331.762024 912.374512,331.762024 
	C912.374512,318.302246 912.374512,305.460052 912.374512,292.081573 
	C915.342041,292.081573 917.977722,292.089722 920.613403,292.080261 
	C940.107178,292.010162 959.601624,291.990234 979.093811,291.777313 
	C980.943115,291.757111 982.779114,290.521057 984.720642,288.950623 
M1375.051514,327.434479 
	C1375.283691,329.764862 1375.338989,331.467865 1371.917236,331.467957 
	C1343.482300,331.468628 1315.047363,331.665375 1286.612427,331.797058 
	C1282.843872,331.814484 1279.075073,331.799438 1275.008789,331.799438 
	C1275.008789,351.314240 1275.008789,370.333740 1275.008789,389.492065 
	C1276.766968,389.660919 1277.737671,389.836151 1278.708374,389.835510 
	C1312.199463,389.813293 1345.691895,389.916870 1379.180664,389.618591 
	C1385.928711,389.558472 1392.760864,388.419373 1399.385132,386.992920 
	C1418.151978,382.951630 1432.852417,366.891907 1433.161011,346.065582 
	C1433.479126,324.581635 1433.737183,303.088501 1433.417969,281.608368 
	C1433.323730,275.261322 1432.221191,268.510345 1429.785889,262.696106 
	C1422.679321,245.728104 1409.221069,236.212250 1390.997559,235.099182 
	C1374.732666,234.105728 1358.368042,234.740234 1342.047485,234.662064 
	C1339.008667,234.647507 1335.969727,234.659958 1332.600342,234.659958 
	C1332.600342,223.176880 1332.965332,212.344376 1332.424805,201.557220 
	C1332.201904,197.108246 1333.317871,196.193069 1337.413574,196.223465 
	C1364.724731,196.426132 1392.037354,196.433472 1419.349487,196.499954 
	C1423.963623,196.511185 1428.577881,196.501556 1433.321289,196.501556 
	C1433.321289,176.539124 1433.321289,157.468704 1433.321289,138.541245 
	C1432.557007,138.298279 1432.243652,138.111526 1431.930420,138.111526 
	C1394.482422,138.111038 1357.033447,137.989731 1319.587769,138.284683 
	C1314.080811,138.328049 1308.200562,139.446701 1303.160400,141.617493 
	C1284.259399,149.758102 1274.890259,164.817978 1274.598389,185.143860 
	C1274.302002,205.787888 1275.132202,226.448273 1274.823730,247.091858 
	C1274.461548,271.321716 1295.773804,293.068695 1319.568726,292.248077 
	C1335.867065,291.686005 1352.204224,292.247681 1368.524048,292.304474 
	C1370.776367,292.312317 1373.028687,292.305573 1375.069214,292.305573 
	C1375.069214,304.208710 1375.069214,315.328644 1375.051514,327.434479 
M1189.340942,196.450912 
	C1200.442627,196.450912 1211.544434,196.450912 1222.834961,196.450912 
	C1222.981567,194.126648 1223.137451,192.832794 1223.133423,191.539413 
	C1223.082764,175.376205 1222.856323,159.211258 1223.047607,143.051163 
	C1223.095703,138.984970 1221.897461,138.023560 1217.997192,138.028244 
	C1189.000244,138.063095 1160.002197,137.721863 1131.005981,137.838272 
	C1120.542480,137.880264 1109.872314,137.727432 1099.665405,139.636276 
	C1078.809570,143.536652 1064.853149,160.391068 1064.312744,182.647797 
	C1063.763794,205.266785 1064.296875,227.936829 1065.114258,250.557114 
	C1065.896729,272.213440 1084.208984,292.846466 1109.335327,292.170563 
	C1125.983765,291.722687 1142.657715,292.220490 1159.320190,292.292603 
	C1161.202515,292.300781 1163.084839,292.293732 1164.884155,292.293732 
	C1164.884155,305.581635 1164.884155,318.331512 1164.884155,331.833435 
	C1131.102783,331.833435 1097.725708,331.833435 1064.498779,331.833435 
	C1064.498779,351.627258 1064.498779,370.659332 1064.498779,389.576477 
	C1101.392822,389.576477 1137.713867,389.669952 1174.033447,389.469421 
	C1179.117065,389.441345 1184.313110,388.417908 1189.251465,387.090363 
	C1210.812622,381.294159 1221.712402,366.563660 1222.650757,347.319458 
	C1223.793579,323.882812 1222.853271,300.341888 1222.722168,276.846588 
	C1222.587646,252.733185 1199.453125,235.121475 1179.303223,234.968567 
	C1163.975464,234.852264 1148.647339,234.793503 1133.319336,234.717331 
	C1129.729614,234.699478 1126.139648,234.714691 1122.734131,234.714691 
	C1122.734131,221.714462 1122.734131,209.312515 1122.734131,196.449463 
	C1144.913574,196.449463 1166.698486,196.449463 1189.340942,196.450912 
M1658.683472,362.798615 
	C1654.945801,349.524750 1651.186890,336.256775 1647.474243,322.975891 
	C1634.590698,276.888245 1621.776123,230.781235 1608.817993,184.714630 
	C1604.862427,170.652283 1600.453735,156.717834 1596.419556,142.676880 
	C1595.370850,139.026886 1593.495239,137.821136 1589.658081,137.903091 
	C1576.503296,138.184067 1563.339600,138.044846 1550.179565,138.097336 
	C1538.338501,138.144562 1538.147461,138.108856 1534.865112,149.732513 
	C1522.181030,194.650955 1509.613525,239.602371 1497.034668,284.550446 
	C1489.020752,313.186432 1481.026123,341.828003 1473.109863,370.491119 
	C1471.414795,376.628784 1470.094727,382.870056 1468.532104,389.353424 
	C1487.426392,389.353424 1505.385986,389.400085 1523.343872,389.244751 
	C1524.495972,389.234772 1526.349365,387.872162 1526.667969,386.784821 
	C1529.606812,376.751282 1532.379150,366.665161 1534.958130,356.532776 
	C1535.591309,354.045532 1536.429077,352.794830 1539.177612,352.794067 
	C1557.833740,352.788910 1576.490356,352.605133 1595.145020,352.733246 
	C1596.443359,352.742157 1598.497314,354.573761 1598.893921,355.937531 
	C1601.484741,364.847382 1603.944580,373.810547 1605.973999,382.862366 
	C1607.125854,387.999786 1609.165527,390.064941 1614.927002,389.897614 
	C1631.948120,389.403259 1648.992798,389.720978 1666.350952,389.720978 
	C1663.717651,380.477814 1661.309937,372.026367 1658.683472,362.798615 
M1742.774292,375.487366 
	C1742.835938,378.818970 1743.031982,382.155090 1742.920044,385.480865 
	C1742.814209,388.628082 1743.918579,389.915466 1747.246582,389.888336 
	C1764.408813,389.748352 1781.572388,389.802277 1798.735596,389.755310 
	C1799.688599,389.752716 1800.640991,389.452179 1801.957764,389.228424 
	C1801.957764,325.003021 1801.957764,260.936981 1801.957764,196.227509 
	C1822.257446,196.227509 1842.163208,196.227509 1862.162842,196.227509 
	C1862.162842,176.528641 1862.162842,157.479065 1862.162842,138.088760 
	C1860.025757,138.088760 1858.376099,138.090363 1856.726440,138.088516 
	C1830.274170,138.058929 1803.821777,138.043198 1777.369507,137.995148 
	C1747.710693,137.941284 1718.051514,137.922821 1688.393799,137.709869 
	C1684.462769,137.681656 1683.167847,138.893051 1683.228149,142.801926 
	C1683.475342,158.793915 1683.458496,174.789841 1683.599609,190.783813 
	C1683.614868,192.513733 1684.023804,194.240173 1684.326904,196.554199 
	C1701.759399,196.554199 1718.696411,196.682068 1735.629883,196.494629 
	C1742.953003,196.413589 1742.950073,196.117874 1742.888550,203.538940 
	C1742.884399,204.038712 1742.860474,204.538376 1742.860229,205.038101 
	C1742.829590,261.522766 1742.800415,318.007416 1742.774292,375.487366 
M742.704773,215.500809 
	C742.704773,209.099182 742.704773,202.697571 742.704773,195.843597 
	C763.393738,195.843597 782.963806,195.843597 802.194702,195.843597 
	C802.194702,176.470947 802.194702,157.593719 802.194702,137.883896 
	C788.934570,137.883896 776.473877,137.862320 764.013306,137.887756 
	C719.198059,137.979233 674.382874,138.127014 629.567627,138.119019 
	C625.536499,138.118301 624.064392,139.201111 624.112976,143.468048 
	C624.293335,159.294083 624.193359,175.125931 623.963684,190.952194 
	C623.904358,195.039978 625.140625,196.402588 629.363892,196.321518 
	C644.687744,196.027344 660.019043,196.116287 675.347534,196.065125 
	C678.450073,196.054764 681.552612,196.063629 685.116028,196.063629 
	C685.116028,198.224899 685.126953,199.851624 685.114380,201.478134 
	C684.907959,228.117371 684.530334,254.756622 684.534973,281.395813 
	C684.540161,310.858429 684.893738,340.320984 685.098511,369.783569 
	C685.134399,374.948334 685.331848,380.117493 685.176270,385.276215 
	C685.072815,388.707031 686.290405,389.933563 689.795349,389.888977 
	C705.287659,389.691864 720.782837,389.731812 736.276855,389.655151 
	C738.389771,389.644714 740.501770,389.460938 742.704590,389.352966 
	C742.704590,331.414185 742.704590,273.957458 742.704773,215.500809 
M163.155609,83.578918 
	C163.554749,78.954758 164.594803,74.281410 164.244324,69.714783 
	C162.546188,47.589394 144.829605,27.850796 122.507118,25.400515 
	C88.585686,21.677048 65.767647,48.072956 68.863731,77.469612 
	C71.327095,100.858688 88.255646,117.135635 111.684921,119.792480 
	C117.531654,120.455498 124.062996,120.885536 129.419266,118.990601 
	C146.056076,113.104858 158.205734,102.139160 163.155609,83.578918 
z"/>
<path fill="#F9F9F9" opacity="1.000000" stroke="none" 
	d="
M356.950348,474.907837 
	C331.197968,487.496063 304.494995,494.452515 276.101501,495.732758 
	C249.699799,496.923187 224.514954,491.543365 199.652939,483.826813 
	C192.583740,481.632751 185.694733,478.514252 179.187210,474.968048 
	C174.375504,472.345917 169.790771,472.349182 164.791168,473.131958 
	C144.085602,476.373779 124.318390,473.647369 107.445129,460.755524 
	C101.301987,456.061890 96.436478,448.712830 93.052338,441.593994 
	C85.782562,426.301453 85.555344,409.952209 88.419952,393.346100 
	C89.166466,389.018585 88.026581,384.116089 86.782448,379.754547 
	C85.020737,373.578644 82.318871,367.674194 80.091705,361.626862 
	C77.764565,355.308044 73.502968,350.739899 68.130386,346.734009 
	C55.046806,336.978699 45.101517,324.712646 39.933224,308.978119 
	C35.742783,296.220581 36.617294,283.915100 42.506542,271.720398 
	C49.813866,256.589325 61.524998,245.796295 74.931168,236.279343 
	C77.620461,234.370224 79.122604,230.562134 80.737862,227.407272 
	C86.678558,215.804092 91.760689,203.700974 98.458031,192.562958 
	C104.846672,181.938324 112.205009,171.732269 120.276794,162.319580 
	C135.608398,144.441010 154.685516,130.964539 175.271408,119.814911 
	C194.378998,109.465950 214.787872,102.339348 236.473541,99.978943 
	C251.558563,98.337006 266.886078,96.317375 281.913116,97.326767 
	C307.924561,99.074013 332.908020,106.077316 356.583282,117.481232 
	C360.478119,119.357307 365.486359,119.306786 370.000366,119.436172 
	C380.967621,119.750534 392.110291,118.460091 402.889191,119.944382 
	C430.168091,123.700790 447.312225,145.619003 449.627197,171.956741 
	C450.411011,180.874237 449.836487,189.651703 448.469421,198.553146 
	C447.614044,204.122513 447.646088,210.110718 451.010681,215.727570 
	C454.378448,221.349594 456.997162,227.608139 458.817474,233.912979 
	C460.423889,239.476715 464.354340,242.590424 468.445892,245.459473 
	C482.147827,255.067474 491.868896,267.751953 497.020569,283.458221 
	C502.736755,300.885651 499.689667,317.704315 488.093811,331.716003 
	C480.444183,340.959320 470.372284,348.164703 461.767456,356.669586 
	C458.904541,359.499268 456.558197,363.275848 455.120178,367.055023 
	C444.558228,394.812439 428.812500,419.051361 407.416260,439.704651 
	C392.536713,454.067535 375.636871,465.412750 356.950348,474.907837 
M132.913773,168.436279 
	C129.299484,172.784607 125.606697,177.070435 122.085297,181.492737 
	C110.406067,196.159897 101.459518,212.380005 94.362785,229.717346 
	C88.453140,244.154648 84.906464,259.191833 83.080780,274.553772 
	C80.387085,297.219482 81.975197,319.759247 87.386154,341.958008 
	C87.883652,343.999023 89.250397,346.510620 90.961151,347.468781 
	C109.849152,358.047668 129.343643,367.282318 150.602554,372.119781 
	C164.160309,375.204865 177.829315,377.808899 191.360260,381.002258 
	C213.186630,386.153351 235.462936,387.328339 257.694153,388.398590 
	C271.551270,389.065704 285.497681,388.300262 299.381775,387.679993 
	C302.734833,387.530182 306.317169,385.909180 309.221558,384.063690 
	C312.540771,381.954620 315.331940,378.951599 318.159790,376.142944 
	C331.960327,362.436371 345.612640,348.579193 359.522156,334.984833 
	C362.515289,332.059540 363.208710,330.219879 360.490784,326.429810 
	C351.974213,314.553619 348.980469,301.622284 354.803436,287.453217 
	C360.893127,272.635162 371.745941,263.929291 387.430176,260.814148 
	C395.536377,259.204132 403.171844,260.769745 411.508820,263.481415 
	C413.910797,255.307968 418.789337,248.478851 421.341766,240.470993 
	C423.009186,235.239700 425.979980,230.437973 427.967499,225.289612 
	C429.267242,221.922852 429.045502,217.738998 430.954498,214.893356 
	C433.535736,211.045624 432.742249,207.852814 430.691315,204.858521 
	C423.204498,193.928131 416.008911,182.720108 407.632874,172.493652 
	C391.602081,152.921295 370.817596,139.160202 348.462860,127.942116 
	C339.230713,123.309227 329.128357,120.277283 319.221375,117.152504 
	C303.122589,112.074760 286.394684,109.778938 269.633728,109.802383 
	C257.777252,109.818970 245.899338,112.154724 234.075027,113.776260 
	C211.975159,116.806946 191.531067,124.960655 173.060898,136.981247 
	C159.058456,146.094193 146.556427,157.512650 132.913773,168.436279 
M207.731583,462.157623 
	C203.597702,463.835724 199.463837,465.513824 195.053864,467.304016 
	C297.487305,511.749207 406.665253,452.579803 439.095612,370.243988 
	C431.164703,373.485291 423.637482,376.960327 415.845673,379.676208 
	C384.202942,390.705505 351.586914,397.109772 318.208466,399.900391 
	C314.401489,400.218719 310.174835,401.235291 307.074707,403.316345 
	C292.454773,413.130554 278.380432,423.762878 263.690979,433.466888 
	C246.343170,444.927032 227.747711,454.149811 207.731583,462.157623 
M113.145370,399.334839 
	C128.851166,424.078888 150.115158,442.995514 174.936295,458.155212 
	C175.605301,458.563782 176.823135,458.455261 177.644592,458.175537 
	C190.146545,453.918060 202.818710,450.076233 215.068207,445.179443 
	C239.625046,435.362762 260.722534,419.484528 282.807526,405.363861 
	C283.367523,405.005798 283.642029,404.201202 284.670197,402.697174 
	C219.056152,401.914032 155.765457,393.679291 96.364128,365.845764 
	C95.908051,366.192932 95.451981,366.540100 94.995911,366.887268 
	C100.927048,377.494293 106.858177,388.101318 113.145370,399.334839 
M428.833038,278.747559 
	C437.151184,291.154633 438.695160,304.638367 433.089355,318.198395 
	C424.465179,339.059570 401.442139,348.571960 380.620148,341.137939 
	C375.576935,339.337402 372.351227,339.886597 368.615295,343.841675 
	C356.287140,356.892914 343.554962,369.562286 331.011597,382.411163 
	C330.425232,383.011780 330.164185,383.929962 329.751648,384.700256 
	C329.945099,385.168213 330.138519,385.636200 330.331970,386.104156 
	C348.143555,382.335419 366.143433,379.273132 383.711395,374.590393 
	C399.834381,370.292755 415.538757,364.384277 431.337891,358.926056 
	C442.159241,355.187500 448.763062,348.732849 450.788513,336.134399 
	C453.277008,320.655731 454.833618,305.260712 454.778992,289.681335 
	C454.730591,275.901062 452.914673,262.276825 449.013397,249.009232 
	C446.887634,241.779846 444.547394,234.613525 442.303864,227.418762 
	C440.622070,228.957138 440.107452,230.459534 439.505402,231.926010 
	C435.408447,241.905228 431.691864,252.066193 427.071777,261.797821 
	C422.430756,271.573425 422.033752,271.384949 428.833038,278.747559 
M406.808228,327.596100 
	C421.923737,320.399445 424.441589,305.365784 421.544250,294.086792 
	C417.980591,280.213989 404.801453,272.843567 391.567139,274.054443 
	C369.691467,276.055939 362.167450,295.578217 367.805756,311.577240 
	C373.419250,327.505951 388.396912,333.762024 406.808228,327.596100 
M120.487228,430.002563 
	C113.894409,422.068237 107.301582,414.133911 100.608162,406.078522 
	C96.009079,445.466003 123.056351,463.458496 152.176208,460.553467 
	C141.927429,450.677643 131.459503,440.590668 120.487228,430.002563 
M69.997643,321.577576 
	C68.294945,299.455078 67.974670,277.368500 72.459076,254.765350 
	C43.685764,278.916077 43.385757,308.479004 71.550575,332.889954 
	C71.001091,329.189484 70.502190,325.829651 69.997643,321.577576 
M474.464203,269.024780 
	C471.813721,266.204987 469.163239,263.385193 466.512756,260.565399 
	C470.326752,285.828308 467.942017,310.554993 465.788544,335.833923 
	C487.068054,320.237701 494.030487,291.487091 474.464203,269.024780 
M423.908600,170.602188 
	C427.987122,175.887238 432.065643,181.172272 436.604156,187.053375 
	C438.583160,142.577530 412.804230,130.490250 385.017120,131.863174 
	C397.365051,144.137848 410.404205,157.099625 423.908600,170.602188 
z"/>
<path fill="#FEFEFE" opacity="1.000000" stroke="none" 
	d="
M984.670959,289.400055 
	C982.779114,290.521057 980.943115,291.757111 979.093811,291.777313 
	C959.601624,291.990234 940.107178,292.010162 920.613403,292.080261 
	C917.977722,292.089722 915.342041,292.081573 912.374512,292.081573 
	C912.374512,305.460052 912.374512,318.302246 912.374512,331.762024 
	C945.816223,331.762024 978.860352,331.762024 1012.360901,331.762024 
	C1012.360901,351.157257 1012.360901,369.938934 1012.360901,389.210114 
	C1010.000854,389.348236 1007.556335,389.610199 1005.111145,389.616852 
	C956.625793,389.749298 908.140015,389.794434 859.655457,390.058411 
	C855.240662,390.082428 854.024902,388.819214 854.025940,384.467957 
	C854.044250,307.659027 853.914734,230.850052 853.818604,154.041077 
	C853.812378,149.061371 853.817749,144.081665 853.817749,138.452118 
	C906.866150,138.452118 959.409241,138.452118 1012.800842,138.452118 
	C1012.800842,141.774185 1012.801331,145.051407 1012.800720,148.328613 
	C1012.798035,162.479034 1012.677368,176.630997 1012.864868,190.778900 
	C1012.920105,194.946655 1011.500671,196.101532 1007.375427,196.082794 
	C977.895264,195.948883 948.413879,196.047638 918.932922,196.107407 
	C912.450073,196.120560 912.555786,196.184341 912.609192,202.638245 
	C912.697205,213.268311 912.633118,223.899628 912.633118,234.762360 
	C936.570618,234.762360 960.098999,234.762360 984.720642,234.762360 
	C984.720642,253.182297 984.720642,271.066467 984.670959,289.400055 
z"/>
<path fill="#fff" opacity="1.000000" stroke="none" 
	d="
M1375.060303,326.941528 
	C1375.069214,315.328644 1375.069214,304.208710 1375.069214,292.305573 
	C1373.028687,292.305573 1370.776367,292.312317 1368.524048,292.304474 
	C1352.204224,292.247681 1335.867065,291.686005 1319.568726,292.248077 
	C1295.773804,293.068695 1274.461548,271.321716 1274.823730,247.091858 
	C1275.132202,226.448273 1274.302002,205.787888 1274.598389,185.143860 
	C1274.890259,164.817978 1284.259399,149.758102 1303.160400,141.617493 
	C1308.200562,139.446701 1314.080811,138.328049 1319.587769,138.284683 
	C1357.033447,137.989731 1394.482422,138.111038 1431.930420,138.111526 
	C1432.243652,138.111526 1432.557007,138.298279 1433.321289,138.541245 
	C1433.321289,157.468704 1433.321289,176.539124 1433.321289,196.501556 
	C1428.577881,196.501556 1423.963623,196.511185 1419.349487,196.499954 
	C1392.037354,196.433472 1364.724731,196.426132 1337.413574,196.223465 
	C1333.317871,196.193069 1332.201904,197.108246 1332.424805,201.557220 
	C1332.965332,212.344376 1332.600342,223.176880 1332.600342,234.659958 
	C1335.969727,234.659958 1339.008667,234.647507 1342.047485,234.662064 
	C1358.368042,234.740234 1374.732666,234.105728 1390.997559,235.099182 
	C1409.221069,236.212250 1422.679321,245.728104 1429.785889,262.696106 
	C1432.221191,268.510345 1433.323730,275.261322 1433.417969,281.608368 
	C1433.737183,303.088501 1433.479126,324.581635 1433.161011,346.065582 
	C1432.852417,366.891907 1418.151978,382.951630 1399.385132,386.992920 
	C1392.760864,388.419373 1385.928711,389.558472 1379.180664,389.618591 
	C1345.691895,389.916870 1312.199463,389.813293 1278.708374,389.835510 
	C1277.737671,389.836151 1276.766968,389.660919 1275.008789,389.492065 
	C1275.008789,370.333740 1275.008789,351.314240 1275.008789,331.799438 
	C1279.075073,331.799438 1282.843872,331.814484 1286.612427,331.797058 
	C1315.047363,331.665375 1343.482300,331.468628 1371.917236,331.467957 
	C1375.338989,331.467865 1375.283691,329.764862 1375.060303,326.941528 
z"/>
<path fill="#fff" opacity="1.000000" stroke="none" 
	d="
M1188.912109,196.450195 
	C1166.698486,196.449463 1144.913574,196.449463 1122.734131,196.449463 
	C1122.734131,209.312515 1122.734131,221.714462 1122.734131,234.714691 
	C1126.139648,234.714691 1129.729614,234.699478 1133.319336,234.717331 
	C1148.647339,234.793503 1163.975464,234.852264 1179.303223,234.968567 
	C1199.453125,235.121475 1222.587646,252.733185 1222.722168,276.846588 
	C1222.853271,300.341888 1223.793579,323.882812 1222.650757,347.319458 
	C1221.712402,366.563660 1210.812622,381.294159 1189.251465,387.090363 
	C1184.313110,388.417908 1179.117065,389.441345 1174.033447,389.469421 
	C1137.713867,389.669952 1101.392822,389.576477 1064.498779,389.576477 
	C1064.498779,370.659332 1064.498779,351.627258 1064.498779,331.833435 
	C1097.725708,331.833435 1131.102783,331.833435 1164.884155,331.833435 
	C1164.884155,318.331512 1164.884155,305.581635 1164.884155,292.293732 
	C1163.084839,292.293732 1161.202515,292.300781 1159.320190,292.292603 
	C1142.657715,292.220490 1125.983765,291.722687 1109.335327,292.170563 
	C1084.208984,292.846466 1065.896729,272.213440 1065.114258,250.557114 
	C1064.296875,227.936829 1063.763794,205.266785 1064.312744,182.647797 
	C1064.853149,160.391068 1078.809570,143.536652 1099.665405,139.636276 
	C1109.872314,137.727432 1120.542480,137.880264 1131.005981,137.838272 
	C1160.002197,137.721863 1189.000244,138.063095 1217.997192,138.028244 
	C1221.897461,138.023560 1223.095703,138.984970 1223.047607,143.051163 
	C1222.856323,159.211258 1223.082764,175.376205 1223.133423,191.539413 
	C1223.137451,192.832794 1222.981567,194.126648 1222.834961,196.450912 
	C1211.544434,196.450912 1200.442627,196.450912 1188.912109,196.450195 
z"/>
<path fill="#fff" opacity="1.000000" stroke="none" 
	d="
M1658.792847,363.186768 
	C1661.309937,372.026367 1663.717651,380.477814 1666.350952,389.720978 
	C1648.992798,389.720978 1631.948120,389.403259 1614.927002,389.897614 
	C1609.165527,390.064941 1607.125854,387.999786 1605.973999,382.862366 
	C1603.944580,373.810547 1601.484741,364.847382 1598.893921,355.937531 
	C1598.497314,354.573761 1596.443359,352.742157 1595.145020,352.733246 
	C1576.490356,352.605133 1557.833740,352.788910 1539.177612,352.794067 
	C1536.429077,352.794830 1535.591309,354.045532 1534.958130,356.532776 
	C1532.379150,366.665161 1529.606812,376.751282 1526.667969,386.784821 
	C1526.349365,387.872162 1524.495972,389.234772 1523.343872,389.244751 
	C1505.385986,389.400085 1487.426392,389.353424 1468.532104,389.353424 
	C1470.094727,382.870056 1471.414795,376.628784 1473.109863,370.491119 
	C1481.026123,341.828003 1489.020752,313.186432 1497.034668,284.550446 
	C1509.613525,239.602371 1522.181030,194.650955 1534.865112,149.732513 
	C1538.147461,138.108856 1538.338501,138.144562 1550.179565,138.097336 
	C1563.339600,138.044846 1576.503296,138.184067 1589.658081,137.903091 
	C1593.495239,137.821136 1595.370850,139.026886 1596.419556,142.676880 
	C1600.453735,156.717834 1604.862427,170.652283 1608.817993,184.714630 
	C1621.776123,230.781235 1634.590698,276.888245 1647.474243,322.975891 
	C1651.186890,336.256775 1654.945801,349.524750 1658.792847,363.186768 
M1561.192871,261.628479 
	C1558.222656,272.389221 1555.252441,283.149963 1552.194702,294.227722 
	C1561.881104,294.227722 1571.408203,294.227722 1581.568726,294.227722 
	C1576.734985,276.620544 1572.077515,259.655121 1567.419922,242.689651 
	C1567.055176,242.574600 1566.690308,242.459549 1566.325562,242.344498 
	C1564.692505,248.511826 1563.059448,254.679169 1561.192871,261.628479 
z"/>
<path fill="#fff" opacity="1.000000" stroke="none" 
	d="
M1742.772705,374.989746 
	C1742.800415,318.007416 1742.829590,261.522766 1742.860229,205.038101 
	C1742.860474,204.538376 1742.884399,204.038712 1742.888550,203.538940 
	C1742.950073,196.117874 1742.953003,196.413589 1735.629883,196.494629 
	C1718.696411,196.682068 1701.759399,196.554199 1684.326904,196.554199 
	C1684.023804,194.240173 1683.614868,192.513733 1683.599609,190.783813 
	C1683.458496,174.789841 1683.475342,158.793915 1683.228149,142.801926 
	C1683.167847,138.893051 1684.462769,137.681656 1688.393799,137.709869 
	C1718.051514,137.922821 1747.710693,137.941284 1777.369507,137.995148 
	C1803.821777,138.043198 1830.274170,138.058929 1856.726440,138.088516 
	C1858.376099,138.090363 1860.025757,138.088760 1862.162842,138.088760 
	C1862.162842,157.479065 1862.162842,176.528641 1862.162842,196.227509 
	C1842.163208,196.227509 1822.257446,196.227509 1801.957764,196.227509 
	C1801.957764,260.936981 1801.957764,325.003021 1801.957764,389.228424 
	C1800.640991,389.452179 1799.688599,389.752716 1798.735596,389.755310 
	C1781.572388,389.802277 1764.408813,389.748352 1747.246582,389.888336 
	C1743.918579,389.915466 1742.814209,388.628082 1742.920044,385.480865 
	C1743.031982,382.155090 1742.835938,378.818970 1742.772705,374.989746 
z"/>
<path fill="#fff" opacity="1.000000" stroke="none" 
	d="
M742.704712,216.000763 
	C742.704590,273.957458 742.704590,331.414185 742.704590,389.352966 
	C740.501770,389.460938 738.389771,389.644714 736.276855,389.655151 
	C720.782837,389.731812 705.287659,389.691864 689.795349,389.888977 
	C686.290405,389.933563 685.072815,388.707031 685.176270,385.276215 
	C685.331848,380.117493 685.134399,374.948334 685.098511,369.783569 
	C684.893738,340.320984 684.540161,310.858429 684.534973,281.395813 
	C684.530334,254.756622 684.907959,228.117371 685.114380,201.478134 
	C685.126953,199.851624 685.116028,198.224899 685.116028,196.063629 
	C681.552612,196.063629 678.450073,196.054764 675.347534,196.065125 
	C660.019043,196.116287 644.687744,196.027344 629.363892,196.321518 
	C625.140625,196.402588 623.904358,195.039978 623.963684,190.952194 
	C624.193359,175.125931 624.293335,159.294083 624.112976,143.468048 
	C624.064392,139.201111 625.536499,138.118301 629.567627,138.119019 
	C674.382874,138.127014 719.198059,137.979233 764.013306,137.887756 
	C776.473877,137.862320 788.934570,137.883896 802.194702,137.883896 
	C802.194702,157.593719 802.194702,176.470947 802.194702,195.843597 
	C782.963806,195.843597 763.393738,195.843597 742.704773,195.843597 
	C742.704773,202.697571 742.704773,209.099182 742.704712,216.000763 
z"/>
<path fill="#fff" opacity="1.000000" stroke="none" 
	d="
M163.067841,83.985565 
	C158.205734,102.139160 146.056076,113.104858 129.419266,118.990601 
	C124.062996,120.885536 117.531654,120.455498 111.684921,119.792480 
	C88.255646,117.135635 71.327095,100.858688 68.863731,77.469612 
	C65.767647,48.072956 88.585686,21.677048 122.507118,25.400515 
	C144.829605,27.850796 162.546188,47.589394 164.244324,69.714783 
	C164.594803,74.281410 163.554749,78.954758 163.067841,83.985565 
M136.260254,100.904396 
	C143.689224,95.758682 148.226379,89.057793 149.872864,79.856979 
	C152.307251,66.253151 147.521088,51.805981 136.962555,44.297581 
	C126.112915,36.582161 109.549332,35.614265 98.787422,42.655457 
	C86.237793,50.866302 80.382050,62.941677 82.446640,77.686745 
	C86.234032,104.735840 114.696274,114.859802 136.260254,100.904396 
z"/>
<path fill="#ff" opacity="1.000000" stroke="none" 
	d="
M133.150238,168.170715 
	C146.556427,157.512650 159.058456,146.094193 173.060898,136.981247 
	C191.531067,124.960655 211.975159,116.806946 234.075027,113.776260 
	C245.899338,112.154724 257.777252,109.818970 269.633728,109.802383 
	C286.394684,109.778938 303.122589,112.074760 319.221375,117.152504 
	C329.128357,120.277283 339.230713,123.309227 348.462860,127.942116 
	C370.817596,139.160202 391.602081,152.921295 407.632874,172.493652 
	C416.008911,182.720108 423.204498,193.928131 430.691315,204.858521 
	C432.742249,207.852814 433.535736,211.045624 430.954498,214.893356 
	C429.045502,217.738998 429.267242,221.922852 427.967499,225.289612 
	C425.979980,230.437973 423.009186,235.239700 421.341766,240.470993 
	C418.789337,248.478851 413.910797,255.307968 411.508820,263.481415 
	C403.171844,260.769745 395.536377,259.204132 387.430176,260.814148 
	C371.745941,263.929291 360.893127,272.635162 354.803436,287.453217 
	C348.980469,301.622284 351.974213,314.553619 360.490784,326.429810 
	C363.208710,330.219879 362.515289,332.059540 359.522156,334.984833 
	C345.612640,348.579193 331.960327,362.436371 318.159790,376.142944 
	C315.331940,378.951599 312.540771,381.954620 309.221558,384.063690 
	C306.317169,385.909180 302.734833,387.530182 299.381775,387.679993 
	C285.497681,388.300262 271.551270,389.065704 257.694153,388.398590 
	C235.462936,387.328339 213.186630,386.153351 191.360260,381.002258 
	C177.829315,377.808899 164.160309,375.204865 150.602554,372.119781 
	C129.343643,367.282318 109.849152,358.047668 90.961151,347.468781 
	C89.250397,346.510620 87.883652,343.999023 87.386154,341.958008 
	C81.975197,319.759247 80.387085,297.219482 83.080780,274.553772 
	C84.906464,259.191833 88.453140,244.154648 94.362785,229.717346 
	C101.459518,212.380005 110.406067,196.159897 122.085297,181.492737 
	C125.606697,177.070435 129.299484,172.784607 133.150238,168.170715 
z"/>
<path fill="#020202" opacity="1.000000" stroke="none" 
	d="
M208.113617,462.087860 
	C227.747711,454.149811 246.343170,444.927032 263.690979,433.466888 
	C278.380432,423.762878 292.454773,413.130554 307.074707,403.316345 
	C310.174835,401.235291 314.401489,400.218719 318.208466,399.900391 
	C351.586914,397.109772 384.202942,390.705505 415.845673,379.676208 
	C423.637482,376.960327 431.164703,373.485291 439.095612,370.243988 
	C406.665253,452.579803 297.487305,511.749207 195.053864,467.304016 
	C199.463837,465.513824 203.597702,463.835724 208.113617,462.087860 
z"/>
<path fill="#020202" opacity="1.000000" stroke="none" 
	d="
M112.967346,399.021606 
	C106.858177,388.101318 100.927048,377.494293 94.995911,366.887268 
	C95.451981,366.540100 95.908051,366.192932 96.364128,365.845764 
	C155.765457,393.679291 219.056152,401.914032 284.670197,402.697174 
	C283.642029,404.201202 283.367523,405.005798 282.807526,405.363861 
	C260.722534,419.484528 239.625046,435.362762 215.068207,445.179443 
	C202.818710,450.076233 190.146545,453.918060 177.644592,458.175537 
	C176.823135,458.455261 175.605301,458.563782 174.936295,458.155212 
	C150.115158,442.995514 128.851166,424.078888 112.967346,399.021606 
z"/>
<path fill="#030303" opacity="1.000000" stroke="none" 
	d="
M428.599487,278.473938 
	C422.033752,271.384949 422.430756,271.573425 427.071777,261.797821 
	C431.691864,252.066193 435.408447,241.905228 439.505402,231.926010 
	C440.107452,230.459534 440.622070,228.957138 442.303864,227.418762 
	C444.547394,234.613525 446.887634,241.779846 449.013397,249.009232 
	C452.914673,262.276825 454.730591,275.901062 454.778992,289.681335 
	C454.833618,305.260712 453.277008,320.655731 450.788513,336.134399 
	C448.763062,348.732849 442.159241,355.187500 431.337891,358.926056 
	C415.538757,364.384277 399.834381,370.292755 383.711395,374.590393 
	C366.143433,379.273132 348.143555,382.335419 330.331970,386.104156 
	C330.138519,385.636200 329.945099,385.168213 329.751648,384.700256 
	C330.164185,383.929962 330.425232,383.011780 331.011597,382.411163 
	C343.554962,369.562286 356.287140,356.892914 368.615295,343.841675 
	C372.351227,339.886597 375.576935,339.337402 380.620148,341.137939 
	C401.442139,348.571960 424.465179,339.059570 433.089355,318.198395 
	C438.695160,304.638367 437.151184,291.154633 428.599487,278.473938 
z"/>
<path fill="#030303" opacity="1.000000" stroke="none" 
	d="
M406.455750,327.765808 
	C388.396912,333.762024 373.419250,327.505951 367.805756,311.577240 
	C362.167450,295.578217 369.691467,276.055939 391.567139,274.054443 
	C404.801453,272.843567 417.980591,280.213989 421.544250,294.086792 
	C424.441589,305.365784 421.923737,320.399445 406.455750,327.765808 
z"/>
<path fill="#070708" opacity="1.000000" stroke="none" 
	d="
M120.739410,430.253113 
	C131.459503,440.590668 141.927429,450.677643 152.176208,460.553467 
	C123.056351,463.458496 96.009079,445.466003 100.608162,406.078522 
	C107.301582,414.133911 113.894409,422.068237 120.739410,430.253113 
z"/>
<path fill="#040404" opacity="1.000000" stroke="none" 
	d="
M70.000465,322.023682 
	C70.502190,325.829651 71.001091,329.189484 71.550575,332.889954 
	C43.385757,308.479004 43.685764,278.916077 72.459076,254.765350 
	C67.974670,277.368500 68.294945,299.455078 70.000465,322.023682 
z"/>
<path fill="#080708" opacity="1.000000" stroke="none" 
	d="
M474.663513,269.326050 
	C494.030487,291.487091 487.068054,320.237701 465.788544,335.833923 
	C467.942017,310.554993 470.326752,285.828308 466.512756,260.565399 
	C469.163239,263.385193 471.813721,266.204987 474.663513,269.326050 
z"/>
<path fill="#060707" opacity="1.000000" stroke="none" 
	d="
M423.675964,170.331802 
	C410.404205,157.099625 397.365051,144.137848 385.017120,131.863174 
	C412.804230,130.490250 438.583160,142.577530 436.604156,187.053375 
	C432.065643,181.172272 427.987122,175.887238 423.675964,170.331802 
z"/>
<path fill="red" opacity="1.000000" stroke="none" 
	d="
M1561.309570,261.237488 
	C1563.059448,254.679169 1564.692505,248.511826 1566.325562,242.344498 
	C1566.690308,242.459549 1567.055176,242.574600 1567.419922,242.689651 
	C1572.077515,259.655121 1576.734985,276.620544 1581.568726,294.227722 
	C1571.408203,294.227722 1561.881104,294.227722 1552.194702,294.227722 
	C1555.252441,283.149963 1558.222656,272.389221 1561.309570,261.237488 
z"/>
<path fill="#020202" opacity="1.000000" stroke="none" 
	d="
M135.934326,101.073128 
	C114.696274,114.859802 86.234032,104.735840 82.446640,77.686745 
	C80.382050,62.941677 86.237793,50.866302 98.787422,42.655457 
	C109.549332,35.614265 126.112915,36.582161 136.962555,44.297581 
	C147.521088,51.805981 152.307251,66.253151 149.872864,79.856979 
	C148.226379,89.057793 143.689224,95.758682 135.934326,101.073128 
z"/>
</svg>